<?xml version="1.0" encoding="utf-8"?>
<!-- Generator: Adobe Illustrator 25.4.1, SVG Export Plug-In . SVG Version: 6.00 Build 0)  -->
<svg version="1.1" id="Livello_1" xmlns="http://www.w3.org/2000/svg" xmlns:xlink="http://www.w3.org/1999/xlink" x="0px" y="0px"
	 viewBox="0 0 283.5 283.5" style="enable-background:new 0 0 283.5 283.5;" xml:space="preserve">
<style type="text/css">
	.st0{fill:#EA581D;}
</style>
<path class="st0" d="M44.5,220.4c1.5,2.5,6,5.1,10.4,3.1c5.5-2.5,7.5-5.6,11.8-9.8c7.9-7.7,14-16.8,21.2-25.1l15.6-18.9
	c10.3-11.7,20.8-23.3,31.7-34.4l21.1-19.7c10.8-9.7,22.2-18.8,34-27.2c1.1-0.7,0.1-2.4-1.1-1.9c0,0-0.1,0-0.1,0
	c-20.1,8.9-39.7,18.7-58.5,30.1c-4.8,2.9-9.4,6.1-13.8,9.5c-2.7,2.1-5.9,3.2-9,4.4c-1.2,0.5-1.5,0.1-1.7-1.1
	c-1.3-6.9-1.6-13.9-1.4-20.9c0-1.6,0.8-2.3,2-3c8.9-5.6,18.4-10.2,28-14.5c33-14.9,67.4-25.8,102.3-35.2c7.3-1.9,14.5-3.8,21.8-5.7
	c1.8-0.4,3.6-0.7,5.5-1c0.9-0.1,1.5,0.9,1,1.7c-2.3,3.2-3.8,6.8-5.2,10.6c-0.8,2.4-3.7,3.3-5.6,4.9c-1,0.9-2,1.6-3.2,2.3
	c-4.8,2.5-7.9,6.5-10.8,10.9c-6.8,10.4-12.8,21.3-17.1,33c-0.3,0.9-0.6,1.9-0.9,2.8c0.1,0.5,0,0.7-0.2,0.8c-3.3,14.5-5.7,38-2.1,52
	c1.3,4.9,4.5,17,6.4,21.8c0,0,0,0,0,0c0,0.1,0.1,0.1,0.1,0.2c0.9,2.2,1.7,4.4,2.6,6.6c0.2,0.4,0.1,0.9-0.3,1.2l-0.7,0.7
	c-0.5,0.4-1,0.9-1.6,1.2l-1.1,0.7c-1.5,0.9-3.6,2.6-5.5,0.9c-1.7-1.6-3.7-2.7-5.5-4.1c0,0,0,0-0.1,0c-5.7-4.9-11.6-9.7-17.1-14.8
	c-1.8-1.7-2.8-3.4-2.9-6.1c-0.3-9.4-1-18.8-0.7-28.2c0.4-14.2,3.8-27.6,9.9-40.4c0.5-1,0.9-2,1.6-3.5c-8.3,7.2-15.9,14.4-23.1,22
	c-0.1,0.1-0.3,0.2-0.5,0.3l0.1,0.2l-9.8,10.3L149,163.7l-10.4,12.8c-9.5,11.6-19.1,23.2-28.5,34.8c-9.3,11.5-19.2,22.4-32.1,30
	c-9.7,5.7-34.6,8.1-43.4-2.3c-6.4-7.6-9.5-14.3-12.7-23.6c-3.3-9.6-3.3-23.7-3.6-33.8c-0.2-8.4-0.6-17.1,0-25.4
	c0.4-5.7,3.1-18.8,4.9-24.2c6.9-21.1,11.9-26.7,19.7-34.1c13.9-13.2,17.1-12.8,34.1-20.1c15.4-6.6,31.5-10.7,47.8-14.4
	c9.4-2.1,18.9-4.1,28.5-5.4c0.6-0.1,1.3,0,2.3,0c-1.7,1.3-3.2,2.5-4.7,3.7c-1.3,1.1-2.7,2-3.7,3.3c-2.7,3.9-6.7,5.1-10.9,6.4
	c-19.3,5.6-38.2,12.4-55.7,22.3c-13.5,7.6-27,16.2-34.2,30.1c-6.1,11.9-6.4,18-7.5,31.4c-1.1,12.8-0.2,32.1,0.5,35.9
	c0.6,3.8,1.3,13.1,2.1,17.3C42,212.5,43,217.9,44.5,220.4z"/>
</svg>
