<svg id="Livello_1" data-name="Livello 1" xmlns="http://www.w3.org/2000/svg" viewBox="0 0 256.49 68.42"><defs><style>.cls-1,.cls-2,.cls-8,.cls-9{fill:#1d1d1b;}.cls-1,.cls-3,.cls-4,.cls-9{fill-rule:evenodd;}.cls-3{fill:#fff;}.cls-4,.cls-5,.cls-7{fill:#ec6907;}.cls-6{fill:none;stroke:#ec6907;stroke-width:0.44px;}.cls-6,.cls-8,.cls-9{stroke-miterlimit:3.86;}.cls-7{stroke:#fff;stroke-miterlimit:3.86;stroke-width:0.57px;}.cls-8,.cls-9{stroke:#1d1d1b;stroke-width:0.29px;}</style></defs><path class="cls-1" d="M158.12,164a18.28,18.28,0,0,0,.16-2.49c0-4.19-2.87-6.34-6.62-6.34-5.25,0-8.63,3.88-8.63,9,0,4.28,2.93,6.32,6.95,6.32,3.53,0,6.46-1.34,7.61-4.81H153c-.37,1-1.15,1.59-2.77,1.59a2.31,2.31,0,0,1-2.57-2.32c0-.47,0-.69,0-1ZM148,161.3c.5-1.82,1.54-3,3.49-3,1.6,0,2.35,1.34,2.21,3Z" transform="translate(-13 -108.46)"/><polygon class="cls-1" points="145.29 61.59 150.04 61.59 154.2 41.63 149.45 41.63 145.29 61.59 145.29 61.59"/><path class="cls-1" d="M180.91,164a18.28,18.28,0,0,0,.16-2.49c0-4.19-2.87-6.34-6.62-6.34-5.25,0-8.64,3.88-8.64,9,0,4.28,2.94,6.32,7,6.32,3.52,0,6.46-1.34,7.61-4.81h-4.64c-.37,1-1.15,1.59-2.77,1.59a2.31,2.31,0,0,1-2.57-2.32c0-.47,0-.69,0-1Zm-10.12-2.66c.5-1.82,1.54-3,3.49-3,1.6,0,2.35,1.34,2.21,3Z" transform="translate(-13 -108.46)"/><path class="cls-1" d="M191,151.18h-4.75l-.92,4.36h-2.41l-.64,3.08h2.4l-1.12,5.25a19.17,19.17,0,0,0-.55,3.83c0,2.21,2.29,2.52,4.5,2.52.92,0,1.81-.12,2.76-.17l.73-3.55c-.5,0-1,.08-1.48.08-.81,0-1.48-.05-1.48-.75a8.57,8.57,0,0,1,.25-1.73l1.14-5.48h3l.64-3.08h-3l.9-4.36Z" transform="translate(-13 -108.46)"/><path class="cls-1" d="M201.84,151.18h-4.75l-.93,4.36h-2.4l-.64,3.08h2.4l-1.12,5.25a19.33,19.33,0,0,0-.56,3.83c0,2.21,2.3,2.52,4.5,2.52.93,0,1.82-.12,2.77-.17l.73-3.55c-.51,0-1,.08-1.49.08-.81,0-1.48-.05-1.48-.75a8.65,8.65,0,0,1,.26-1.73l1.14-5.48h3l.64-3.08h-3l.9-4.36Z" transform="translate(-13 -108.46)"/><path class="cls-1" d="M202.52,170.05h4.75l1.4-6.65c.48-2.46,1.48-4.11,4.08-4.11a7.74,7.74,0,0,1,2.15.28l.93-4.19a3.48,3.48,0,0,0-1.6-.25,5.22,5.22,0,0,0-4.55,2.79h-.06l.53-2.38h-4.61l-3,14.51Z" transform="translate(-13 -108.46)"/><path class="cls-1" d="M215,164.15c0,4.28,2.94,6.32,7,6.32,5.25,0,8.52-3.77,8.52-8.95,0-4.16-2.87-6.39-6.84-6.39-5.26,0-8.64,3.88-8.64,9Zm4.75-.17c0-1.95,1-5.36,3.58-5.36,1.79,0,2.4,1.28,2.4,3.1,0,2.24-1,5.25-3.66,5.25-1.67,0-2.32-1.34-2.32-3Z" transform="translate(-13 -108.46)"/><path class="cls-1" d="M230.59,170.05h4.75l1.29-6.15c.5-2.38.83-5.14,3.77-5.14a1.62,1.62,0,0,1,1.73,1.76,9.47,9.47,0,0,1-.28,1.84l-1.65,7.69H245l1.74-7.71a17.38,17.38,0,0,0,.5-3.13,3.82,3.82,0,0,0-4.16-4.08,6.21,6.21,0,0,0-5,2.18H238l.39-1.77h-4.75l-3,14.51Z" transform="translate(-13 -108.46)"/><polygon class="cls-1" points="233.82 61.59 238.57 61.59 241.59 47.08 236.84 47.08 233.82 61.59 233.82 61.59"/><path class="cls-1" d="M269.49,160.83c0-3.89-2.85-5.7-6.51-5.7-5.25,0-8.63,3.88-8.63,9,0,4.28,2.93,6.32,7,6.32,3.83,0,6.71-1.82,7.58-5.95h-4.61A2.79,2.79,0,0,1,261.5,167c-1.59,0-2.4-1.22-2.4-3.32s.86-5.14,3.66-5a2.15,2.15,0,0,1,1.53.56,2.1,2.1,0,0,1,.59,1.65Z" transform="translate(-13 -108.46)"/><path class="cls-2" d="M255.59,150.69a2.22,2.22,0,0,0-2.23-2.85,3.51,3.51,0,0,0-3.36,2.85,2.21,2.21,0,0,0,2.25,2.85,3.51,3.51,0,0,0,3.34-2.85Z" transform="translate(-13 -108.46)"/><path class="cls-3" d="M252.17,151h.5l.55,1.35h.59l-.61-1.39a1,1,0,0,0,1-.86c.12-.64-.22-.9-1-.9H252l-.62,3.15h.51l.26-1.35Zm.08-.44.18-.92h.64c.32,0,.69.06.62.43s-.45.49-.84.49Z" transform="translate(-13 -108.46)"/><path class="cls-1" d="M84.81,166.33c0-2.8,4.3-1.62,5.5-2.63h0c-.17,1.31-.73,4.14-3.6,4.14-.95,0-1.93-.37-1.93-1.51Zm1.65-6c.19-1.37,1.11-1.82,2.62-1.82s2,.56,2,1.4c0,1.9-2.24,1.79-3.86,1.87-3.72.28-7.18,1-7.18,4.92,0,3,2,4.08,4.72,4.08,2.07,0,3.49-.53,4.39-1.82h0a5.77,5.77,0,0,0,.11,1.4H94a3.45,3.45,0,0,1-.19-1.12,12,12,0,0,1,.44-2.71,41.11,41.11,0,0,0,1.43-7.29c0-2.82-2.6-3.8-6.62-3.8-3.55,0-6.35,1.12-7.1,4.89Z" transform="translate(-13 -108.46)"/><polygon class="cls-1" points="82.13 61.89 86.88 61.89 91.04 41.94 86.29 41.94 82.13 61.89 82.13 61.89"/><path class="cls-1" d="M113.86,161.8c0,2.1-1.12,5.34-3.77,5.34a2.33,2.33,0,0,1-2.38-2.63c0-2.29.92-5.45,3.77-5.45,1.6,0,2.38,1.09,2.38,2.74Zm-12.13,8.55h4.53l.42-2h0c.76,1.79,2,2.46,4.25,2.46,5,0,7.63-4.67,7.63-9.25,0-3.24-1.59-6.09-5.11-6.09a5.21,5.21,0,0,0-4.25,1.93h-.06l1.46-7h-4.76l-4.16,19.95Z" transform="translate(-13 -108.46)"/><path class="cls-1" d="M123.75,166.33c0-2.8,4.31-1.62,5.51-2.63h0c-.17,1.31-.73,4.14-3.61,4.14-1,0-1.93-.37-1.93-1.51Zm1.65-6c.2-1.37,1.12-1.82,2.63-1.82s2,.56,2,1.4c0,1.9-2.24,1.79-3.86,1.87-3.71.28-7.18,1-7.18,4.92,0,3,2,4.08,4.72,4.08,2.07,0,3.5-.53,4.39-1.82h.06a5.77,5.77,0,0,0,.11,1.4H133a3.16,3.16,0,0,1-.2-1.12,12,12,0,0,1,.45-2.71,42.07,42.07,0,0,0,1.42-7.29c0-2.82-2.6-3.8-6.62-3.8-3.55,0-6.34,1.12-7.1,4.89Z" transform="translate(-13 -108.46)"/><path class="cls-1" d="M102.42,131.64v.06c.88.5.76,1.24.76,2.16v4.76c0,.92.12,1.66-.76,2.16v.06h3.34v-.06c-.88-.5-.76-1.22-.76-2.14V135.1c0-1.18.3-2.4,2.12-2.4s2.41,1.1,2.41,3.24v2.7c0,.9.12,1.64-.76,2.14v.06h3.34v-.06c-.88-.5-.76-1.22-.76-2.14v-2.9a5.4,5.4,0,0,0-.5-3,3.71,3.71,0,0,0-3-1.38,3.26,3.26,0,0,0-2.82,1.54v-1.54h-.06a2.64,2.64,0,0,1-1.34.26Z" transform="translate(-13 -108.46)"/><path class="cls-1" d="M124.15,135.92a4.29,4.29,0,0,0-4.5-4.54,4.7,4.7,0,0,0-5,4.8c0,2.78,2.34,4.92,5.74,4.92a7.19,7.19,0,0,0,2.76-.5l1-1.88h-.06a5.28,5.28,0,0,1-3.28,1.06,3.74,3.74,0,0,1-4-3.86Zm-7.26-1.16a2.49,2.49,0,0,1,2.58-2.06,2.31,2.31,0,0,1,2.58,2.06Z" transform="translate(-13 -108.46)"/><path class="cls-2" d="M126.68,127.69v.06c.86.5.74,1.23.74,2.15v8.72c0,.92.12,1.66-.74,2.16v.06H130v-.06c-.88-.5-.74-1.24-.74-2.16V127.37h-.06a1.64,1.64,0,0,1-1.28.32Z" transform="translate(-13 -108.46)"/><path class="cls-2" d="M133,127.69v.06c.86.5.74,1.23.74,2.15v8.72c0,.92.12,1.66-.74,2.16v.06h3.3v-.06c-.88-.5-.74-1.24-.74-2.16V127.37h-.06a1.64,1.64,0,0,1-1.28.32Z" transform="translate(-13 -108.46)"/><path class="cls-2" d="M148.43,139.78c-1.66-.18-1.7-.78-1.7-2.36v-3c0-2.42-1.66-3-3.82-3l-1.29.12-1.34,2a6.21,6.21,0,0,1,2.71-.8c.74,0,1.92.32,1.92,1.28,0,2.18-6,.46-6,4.18,0,1.66,1.4,2.94,3.41,2.94a6.1,6.1,0,0,0,1-.1l1.18-1.5a5.24,5.24,0,0,1-1.44.28c-1.06,0-2.17-.4-2.17-1.64s1.07-1.44,2-1.66a8.63,8.63,0,0,0,1.92-.62V139c0,1.6,1.32,2,2.64,2.08l.88-1.32Z" transform="translate(-13 -108.46)"/><path class="cls-2" d="M163.72,131.64a8.32,8.32,0,0,0-2.22-.26c-1.72,0-3.92.56-3.92,2.68,0,3,5.42,2.4,5.42,4.42,0,1-1.38,1.3-2.2,1.3a6.79,6.79,0,0,1-3.76-1.12l.7,2a6.81,6.81,0,0,0,2.6.48c2.58,0,4.48-1.26,4.48-3.12,0-3.18-5.42-2.54-5.42-4.32,0-.8,1.2-1,1.86-1a5.18,5.18,0,0,1,2.46.64v-1.7Z" transform="translate(-13 -108.46)"/><path class="cls-1" d="M167.38,131.64v.06c.88.5.76,1.22.76,2.14v4.78c0,.92.12,1.66-.76,2.16v.06h3.34v-.06c-.88-.5-.76-1.24-.76-2.16v-7.3h-.06a1.93,1.93,0,0,1-1.3.32Zm2.8-2.46A1.22,1.22,0,0,0,169,128a1.25,1.25,0,0,0-1.3,1.17,1.29,1.29,0,0,0,1.3,1.32,1.24,1.24,0,0,0,1.2-1.26Z" transform="translate(-13 -108.46)"/><path class="cls-1" d="M181.32,131.62a9.8,9.8,0,0,0-2.16-.24c-3,0-5.7,1.66-5.7,5.1,0,2.6,2.4,4.62,5.48,4.62a7.43,7.43,0,0,0,2.64-.4l1-1.9h-.06a5.14,5.14,0,0,1-2.91,1,3.93,3.93,0,0,1-4.16-3.82,3.18,3.18,0,0,1,3.34-3.26,3.29,3.29,0,0,1,2.44,1h.06v-2.06Z" transform="translate(-13 -108.46)"/><path class="cls-1" d="M190.67,131.64v.06c.88.52.76,1.24.76,2.18V137a2.37,2.37,0,0,1-2.27,2.62c-1.74,0-2.26-1.14-2.26-3v-5.22h-.06a2,2,0,0,1-1.22.26h-1.3v.06c.88.5.76,1.24.76,2.16v3.08c0,2.82,1.12,4.16,3.48,4.16a3,3,0,0,0,2.87-1.56v1.3H194v-.06c-.88-.46-.76-1.2-.76-2.12v-7.28h-.06c-.36.34-1,.26-1.5.26Z" transform="translate(-13 -108.46)"/><path class="cls-1" d="M196.77,131.64v.06c.86.5.74,1.22.74,2.14v4.78c0,.92.12,1.66-.76,2.16v.06h3.34v-.06c-.88-.5-.76-1.24-.76-2.16v-2.8c0-2.06.64-2.86,2.16-2.86a1.24,1.24,0,0,1,.92.32v-1.84l-.72-.06a2.68,2.68,0,0,0-2.36,1.52v-1.52h-.06a2,2,0,0,1-1.22.26Z" transform="translate(-13 -108.46)"/><path class="cls-1" d="M214.52,135.92a4.29,4.29,0,0,0-4.5-4.54,4.7,4.7,0,0,0-5,4.8c0,2.78,2.34,4.92,5.74,4.92a7.19,7.19,0,0,0,2.76-.5l1-1.88h-.06a5.28,5.28,0,0,1-3.28,1.06,3.74,3.74,0,0,1-4-3.86Zm-7.26-1.16a2.49,2.49,0,0,1,2.58-2.06,2.31,2.31,0,0,1,2.58,2.06Z" transform="translate(-13 -108.46)"/><path class="cls-1" d="M224.87,140.84l1.12-2.18h-.06a4.89,4.89,0,0,1-3.2.86l-2.92-.24,5.26-7.58v-.06H218l-1,2h.06a4,4,0,0,1,2.82-.72l2.06.16-5.54,7.66v.06Z" transform="translate(-13 -108.46)"/><path class="cls-1" d="M235.57,140.84l1.12-2.18h-.06a4.89,4.89,0,0,1-3.2.86l-2.92-.24,5.26-7.58v-.06h-7.08l-1,2h.06a4,4,0,0,1,2.82-.72l2.06.16-5.54,7.66v.06Z" transform="translate(-13 -108.46)"/><path class="cls-2" d="M247.61,139.78c-1.66-.18-1.7-.78-1.7-2.36v-3c0-2.42-1.66-3-3.82-3l-1.3.12-1.34,2a6.22,6.22,0,0,1,2.72-.8c.74,0,1.92.32,1.92,1.28,0,2.18-6,.46-6,4.18,0,1.66,1.4,2.94,3.42,2.94a6.1,6.1,0,0,0,1-.1l1.18-1.5a5.24,5.24,0,0,1-1.44.28c-1.06,0-2.18-.4-2.18-1.64s1.08-1.44,2-1.66a8.63,8.63,0,0,0,1.92-.62V139c0,1.6,1.32,2,2.64,2.08l.88-1.32Z" transform="translate(-13 -108.46)"/><path class="cls-2" d="M252.94,139.84a1.24,1.24,0,0,0-2.47-.06,1.24,1.24,0,1,0,2.47.06Z" transform="translate(-13 -108.46)"/><path class="cls-1" d="M116.22,121.22V112.5c0-.9-.14-2.37.88-2.75v-.06h-3.81v.06c1,.38.89,1.83.89,2.75V120c0,.9.12,2.38-.89,2.74v.06h8.21l1-2.66h-.06a4.92,4.92,0,0,1-3.54,1.22l-2.72-.18Z" transform="translate(-13 -108.46)"/><polygon class="cls-2" points="112.64 5.24 113.55 5.24 113.55 1.23 112.64 1.23 112.64 5.24 112.64 5.24"/><path class="cls-1" d="M139.4,117.92a4.29,4.29,0,0,0-4.49-4.54,4.7,4.7,0,0,0-5,4.8c0,2.78,2.34,4.92,5.74,4.92a7.14,7.14,0,0,0,2.75-.5l1-1.88h-.06a5.27,5.27,0,0,1-3.27,1.06,3.74,3.74,0,0,1-4-3.86Zm-7.25-1.16a2.49,2.49,0,0,1,2.58-2.06,2.3,2.3,0,0,1,2.57,2.06Z" transform="translate(-13 -108.46)"/><path class="cls-2" d="M140.58,113.64v.06c1.24.66,1.3,1.06,1.78,2.14l2.42,5.28c.52,1.18,1,1.42,2.18,2.08l4.53-9.56h-2.84v.06c1.06.44.62,1.38.22,2.22l-2.29,4.94-2.9-6.46a3.56,3.56,0,0,1-.32-1h-.06a2.89,2.89,0,0,1-1.64.24Z" transform="translate(-13 -108.46)"/><path class="cls-1" d="M158.71,123.1a5,5,0,0,0,5.21-5,4.79,4.79,0,0,0-5-4.76,5,5,0,0,0-5.3,4.94,4.83,4.83,0,0,0,5.06,4.78Zm.1-1.32c-2,0-3.14-2-3.14-3.82a3.06,3.06,0,0,1,3.06-3.26c2.13,0,3.17,1.92,3.17,3.86a3.07,3.07,0,0,1-3.09,3.22Z" transform="translate(-13 -108.46)"/><path class="cls-2" d="M166.52,109.69v.06c.86.5.74,1.23.74,2.15v8.72c0,.92.12,1.66-.74,2.16v.06h3.3v-.06c-.88-.5-.74-1.24-.74-2.16V109.37H169a1.64,1.64,0,0,1-1.28.32Z" transform="translate(-13 -108.46)"/><path class="cls-1" d="M179.13,113.64v.06c.88.52.76,1.24.76,2.18V119a2.37,2.37,0,0,1-2.28,2.62c-1.74,0-2.26-1.14-2.26-3v-5.22h-.06a2,2,0,0,1-1.21.26h-1.3v.06c.88.5.76,1.24.76,2.16v3.08c0,2.82,1.11,4.16,3.47,4.16a3,3,0,0,0,2.88-1.56v1.3h2.58v-.06c-.88-.46-.76-1.2-.76-2.12v-7.28h-.06c-.36.34-1,.26-1.5.26Z" transform="translate(-13 -108.46)"/><path class="cls-1" d="M192.93,122.84l1.11-2.18H194a4.84,4.84,0,0,1-3.19.86l-2.92-.24,5.25-7.58v-.06h-7.07l-1,2h.06a4,4,0,0,1,2.82-.72l2.06.16-5.54,7.66v.06Z" transform="translate(-13 -108.46)"/><path class="cls-1" d="M195.83,113.64v.06c.88.5.76,1.22.76,2.14v4.78c0,.92.12,1.66-.76,2.16v.06h3.34v-.06c-.88-.5-.76-1.24-.76-2.16v-7.3h-.06a1.93,1.93,0,0,1-1.3.32Zm2.8-2.46a1.22,1.22,0,0,0-1.2-1.23,1.25,1.25,0,0,0-1.3,1.17,1.29,1.29,0,0,0,1.3,1.32,1.24,1.24,0,0,0,1.2-1.26Z" transform="translate(-13 -108.46)"/><path class="cls-1" d="M207,123.1a5,5,0,0,0,5.22-5,4.79,4.79,0,0,0-5-4.76,5,5,0,0,0-5.29,4.94,4.82,4.82,0,0,0,5,4.78Zm.1-1.32c-2,0-3.14-2-3.14-3.82A3.06,3.06,0,0,1,207,114.7c2.14,0,3.18,1.92,3.18,3.86a3.07,3.07,0,0,1-3.1,3.22Z" transform="translate(-13 -108.46)"/><path class="cls-1" d="M214.72,113.64v.06c.88.5.76,1.24.76,2.16v4.76c0,.92.12,1.66-.76,2.16v.06h3.33v-.06c-.88-.5-.76-1.22-.76-2.14V117.1c0-1.18.3-2.4,2.12-2.4s2.42,1.1,2.42,3.24v2.7c0,.9.12,1.64-.76,2.14v.06h3.34v-.06c-.88-.5-.76-1.22-.76-2.14v-2.9a5.4,5.4,0,0,0-.5-3,3.72,3.72,0,0,0-3-1.38,3.26,3.26,0,0,0-2.82,1.54v-1.54h-.06a2.6,2.6,0,0,1-1.33.26Z" transform="translate(-13 -108.46)"/><path class="cls-1" d="M236.44,117.92a4.28,4.28,0,0,0-4.49-4.54,4.7,4.7,0,0,0-5,4.8c0,2.78,2.34,4.92,5.74,4.92a7.1,7.1,0,0,0,2.75-.5l1-1.88h-.06a5.25,5.25,0,0,1-3.27,1.06,3.74,3.74,0,0,1-4-3.86Zm-7.25-1.16a2.49,2.49,0,0,1,2.58-2.06,2.31,2.31,0,0,1,2.58,2.06Z" transform="translate(-13 -108.46)"/><path class="cls-4" d="M101.85,131.08v.06c.88.5.76,1.24.76,2.16v4.75c0,.92.12,1.66-.76,2.16v.06h3.34v-.06c-.88-.5-.76-1.22-.76-2.14v-3.54c0-1.17.3-2.39,2.12-2.39s2.42,1.1,2.42,3.23v2.7c0,.9.12,1.64-.76,2.14v.06h3.34v-.06c-.88-.5-.76-1.22-.76-2.14v-2.9a5.36,5.36,0,0,0-.5-3,3.72,3.72,0,0,0-3-1.38,3.26,3.26,0,0,0-2.82,1.54v-1.54h-.06a2.64,2.64,0,0,1-1.34.26Z" transform="translate(-13 -108.46)"/><path class="cls-4" d="M123.58,135.35a4.29,4.29,0,0,0-4.5-4.53,4.69,4.69,0,0,0-5,4.79c0,2.78,2.34,4.92,5.74,4.92a7.19,7.19,0,0,0,2.76-.5l1-1.88h-.06a5.28,5.28,0,0,1-3.28,1.06,3.74,3.74,0,0,1-4-3.86Zm-7.26-1.16a2.49,2.49,0,0,1,2.58-2.05,2.31,2.31,0,0,1,2.58,2.05Z" transform="translate(-13 -108.46)"/><path class="cls-5" d="M126.11,127.12v.06c.86.5.74,1.24.74,2.16v8.71c0,.92.12,1.66-.74,2.16v.06h3.3v-.06c-.88-.5-.74-1.24-.74-2.16V126.8h-.06a1.64,1.64,0,0,1-1.28.32Z" transform="translate(-13 -108.46)"/><path class="cls-5" d="M132.41,127.12v.06c.86.5.74,1.24.74,2.16v8.71c0,.92.12,1.66-.74,2.16v.06h3.3v-.06c-.88-.5-.74-1.24-.74-2.16V126.8h-.06a1.64,1.64,0,0,1-1.28.32Z" transform="translate(-13 -108.46)"/><path class="cls-5" d="M147.86,139.21c-1.65-.18-1.69-.78-1.69-2.36v-3c0-2.42-1.66-3-3.82-3l-1.3.12-1.34,2a6.22,6.22,0,0,1,2.72-.8c.74,0,1.92.32,1.92,1.28,0,2.17-6,.46-6,4.17,0,1.66,1.4,2.94,3.42,2.94a6.1,6.1,0,0,0,1-.1l1.18-1.5a5.24,5.24,0,0,1-1.44.28c-1.06,0-2.18-.4-2.18-1.64s1.08-1.44,2-1.66a8.63,8.63,0,0,0,1.92-.62v3.16c0,1.6,1.32,2,2.64,2.08l.87-1.32Z" transform="translate(-13 -108.46)"/><path class="cls-5" d="M163.15,131.08a8.3,8.3,0,0,0-2.21-.26c-1.72,0-3.92.56-3.92,2.68,0,3,5.41,2.39,5.41,4.41,0,1-1.38,1.3-2.19,1.3a6.79,6.79,0,0,1-3.76-1.12l.7,2a6.81,6.81,0,0,0,2.6.48c2.57,0,4.47-1.26,4.47-3.12,0-3.18-5.41-2.54-5.41-4.31,0-.8,1.2-1,1.86-1a5.17,5.17,0,0,1,2.45.64v-1.7Z" transform="translate(-13 -108.46)"/><path class="cls-4" d="M166.82,131.08v.06c.87.5.75,1.22.75,2.14v4.77c0,.92.12,1.66-.75,2.16v.06h3.33v-.06c-.88-.5-.76-1.24-.76-2.16v-7.29h-.06a1.93,1.93,0,0,1-1.3.32Zm2.79-2.46a1.23,1.23,0,0,0-1.2-1.24,1.25,1.25,0,0,0-1.3,1.18,1.29,1.29,0,0,0,1.3,1.32,1.24,1.24,0,0,0,1.2-1.26Z" transform="translate(-13 -108.46)"/><path class="cls-4" d="M180.75,131.06a9.8,9.8,0,0,0-2.16-.24c-3,0-5.7,1.66-5.7,5.09,0,2.6,2.4,4.62,5.48,4.62a7.43,7.43,0,0,0,2.64-.4l1-1.9H182a5.17,5.17,0,0,1-2.92,1,3.93,3.93,0,0,1-4.16-3.82,3.18,3.18,0,0,1,3.34-3.25,3.29,3.29,0,0,1,2.44,1h.06v-2.06Z" transform="translate(-13 -108.46)"/><path class="cls-4" d="M190.11,131.08v.06c.88.52.76,1.24.76,2.18v3.07a2.37,2.37,0,0,1-2.28,2.62c-1.74,0-2.26-1.14-2.26-3v-5.21h-.06a2,2,0,0,1-1.22.26h-1.3v.06c.88.5.76,1.24.76,2.16v3.07c0,2.82,1.12,4.16,3.48,4.16a3,3,0,0,0,2.88-1.56v1.3h2.58v-.06c-.88-.46-.76-1.2-.76-2.12v-7.27h-.06c-.36.34-1,.26-1.5.26Z" transform="translate(-13 -108.46)"/><path class="cls-4" d="M196.2,131.08v.06c.86.5.74,1.22.74,2.14v4.77c0,.92.12,1.66-.76,2.16v.06h3.34v-.06c-.88-.5-.76-1.24-.76-2.16v-2.8c0-2.05.64-2.85,2.16-2.85a1.24,1.24,0,0,1,.92.32v-1.84l-.72-.06a2.68,2.68,0,0,0-2.36,1.52v-1.52h-.06a2,2,0,0,1-1.22.26Z" transform="translate(-13 -108.46)"/><path class="cls-4" d="M214,135.35a4.29,4.29,0,0,0-4.5-4.53,4.69,4.69,0,0,0-5,4.79c0,2.78,2.34,4.92,5.73,4.92A7.19,7.19,0,0,0,213,140l1-1.88h-.06a5.28,5.28,0,0,1-3.28,1.06,3.74,3.74,0,0,1-4-3.86Zm-7.25-1.16a2.48,2.48,0,0,1,2.57-2.05,2.31,2.31,0,0,1,2.58,2.05Z" transform="translate(-13 -108.46)"/><path class="cls-4" d="M224.3,140.27l1.12-2.18h-.06a4.89,4.89,0,0,1-3.2.86l-2.91-.24,5.25-7.57v-.06h-7.07l-1,2h.06a4,4,0,0,1,2.82-.72l2.05.16-5.53,7.65v.06Z" transform="translate(-13 -108.46)"/><path class="cls-4" d="M235,140.27l1.12-2.18h-.06a4.89,4.89,0,0,1-3.2.86l-2.92-.24,5.26-7.57v-.06h-7.08l-1,2h.06a4,4,0,0,1,2.81-.72l2.06.16-5.53,7.65v.06Z" transform="translate(-13 -108.46)"/><path class="cls-5" d="M247,139.21c-1.66-.18-1.7-.78-1.7-2.36v-3c0-2.42-1.66-3-3.82-3l-1.3.12-1.34,2a6.22,6.22,0,0,1,2.72-.8c.74,0,1.92.32,1.92,1.28,0,2.17-6,.46-6,4.17,0,1.66,1.4,2.94,3.42,2.94a6.1,6.1,0,0,0,1-.1l1.18-1.5a5.24,5.24,0,0,1-1.44.28c-1.06,0-2.18-.4-2.18-1.64s1.08-1.44,2-1.66a8.63,8.63,0,0,0,1.92-.62v3.16c0,1.6,1.32,2,2.64,2.08l.88-1.32Z" transform="translate(-13 -108.46)"/><path class="cls-5" d="M252.38,139.27a1.24,1.24,0,0,0-2.48-.06,1.24,1.24,0,1,0,2.48.06Z" transform="translate(-13 -108.46)"/><path class="cls-4" d="M115.66,120.65v-8.71c0-.9-.14-2.38.88-2.76v-.06h-3.82v.06c1,.38.9,1.84.9,2.76v7.53c0,.9.12,2.38-.9,2.74v.06h8.21l1-2.66h-.06a4.91,4.91,0,0,1-3.53,1.22l-2.72-.18Z" transform="translate(-13 -108.46)"/><polygon class="cls-5" points="112.07 4.68 112.99 4.68 112.99 0.66 112.07 0.66 112.07 4.68 112.07 4.68"/><path class="cls-4" d="M138.84,117.35a4.29,4.29,0,0,0-4.5-4.53,4.69,4.69,0,0,0-5,4.79c0,2.78,2.34,4.92,5.74,4.92a7.19,7.19,0,0,0,2.76-.5l1-1.88h-.06a5.28,5.28,0,0,1-3.28,1.06,3.74,3.74,0,0,1-4-3.86Zm-7.26-1.16a2.49,2.49,0,0,1,2.58-2,2.31,2.31,0,0,1,2.58,2Z" transform="translate(-13 -108.46)"/><path class="cls-5" d="M140,113.08v.06c1.24.66,1.3,1.06,1.78,2.14l2.42,5.27c.52,1.18,1,1.42,2.18,2.08l4.54-9.55h-2.84v.06c1.06.44.62,1.38.22,2.22l-2.3,4.93-2.9-6.45a3.56,3.56,0,0,1-.32-1h-.06a2.89,2.89,0,0,1-1.64.24Z" transform="translate(-13 -108.46)"/><path class="cls-4" d="M158.14,122.53a5,5,0,0,0,5.22-5,4.79,4.79,0,0,0-5-4.75,5,5,0,0,0-5.3,4.93,4.83,4.83,0,0,0,5.06,4.78Zm.1-1.32c-2,0-3.14-2-3.14-3.82a3.06,3.06,0,0,1,3.06-3.25c2.14,0,3.18,1.92,3.18,3.85a3.07,3.07,0,0,1-3.1,3.22Z" transform="translate(-13 -108.46)"/><path class="cls-5" d="M166,109.12v.06c.86.5.74,1.24.74,2.16v8.71c0,.92.12,1.66-.74,2.16v.06h3.3v-.06c-.88-.5-.74-1.24-.74-2.16V108.8h-.06a1.64,1.64,0,0,1-1.28.32Z" transform="translate(-13 -108.46)"/><path class="cls-4" d="M178.57,113.08v.06c.88.52.76,1.24.76,2.18v3.07a2.37,2.37,0,0,1-2.28,2.62c-1.74,0-2.26-1.14-2.26-3v-5.21h-.06a2,2,0,0,1-1.22.26h-1.3v.06c.88.5.76,1.24.76,2.16v3.07c0,2.82,1.12,4.16,3.48,4.16a3,3,0,0,0,2.88-1.56v1.3h2.57v-.06c-.88-.46-.76-1.2-.76-2.12v-7.27h-.06c-.36.34-1,.26-1.49.26Z" transform="translate(-13 -108.46)"/><path class="cls-4" d="M192.36,122.27l1.12-2.18h-.06a4.89,4.89,0,0,1-3.2.86l-2.92-.24,5.26-7.57v-.06h-7.08l-1,2h.06a4,4,0,0,1,2.82-.72l2.06.16-5.54,7.65v.06Z" transform="translate(-13 -108.46)"/><path class="cls-4" d="M195.26,113.08v.06c.88.5.76,1.22.76,2.14v4.77c0,.92.12,1.66-.76,2.16v.06h3.34v-.06c-.88-.5-.76-1.24-.76-2.16v-7.29h-.06a1.93,1.93,0,0,1-1.3.32Zm2.8-2.46a1.23,1.23,0,0,0-1.2-1.24,1.25,1.25,0,0,0-1.3,1.18,1.29,1.29,0,0,0,1.3,1.32,1.24,1.24,0,0,0,1.2-1.26Z" transform="translate(-13 -108.46)"/><path class="cls-4" d="M206.42,122.53a5,5,0,0,0,5.21-5,4.79,4.79,0,0,0-5-4.75,5,5,0,0,0-5.3,4.93,4.83,4.83,0,0,0,5.06,4.78Zm.1-1.32c-2,0-3.14-2-3.14-3.82a3.06,3.06,0,0,1,3.06-3.25c2.13,0,3.17,1.92,3.17,3.85a3.07,3.07,0,0,1-3.09,3.22Z" transform="translate(-13 -108.46)"/><path class="cls-4" d="M214.15,113.08v.06c.88.5.76,1.24.76,2.16v4.75c0,.92.12,1.66-.76,2.16v.06h3.34v-.06c-.88-.5-.76-1.22-.76-2.14v-3.54c0-1.17.3-2.39,2.12-2.39s2.42,1.1,2.42,3.23v2.7c0,.9.12,1.64-.76,2.14v.06h3.33v-.06c-.88-.5-.76-1.22-.76-2.14v-2.9a5.36,5.36,0,0,0-.5-3,3.7,3.7,0,0,0-3-1.38,3.26,3.26,0,0,0-2.82,1.54v-1.54h-.06a2.64,2.64,0,0,1-1.34.26Z" transform="translate(-13 -108.46)"/><path class="cls-4" d="M235.88,117.35a4.29,4.29,0,0,0-4.5-4.53,4.69,4.69,0,0,0-5,4.79c0,2.78,2.34,4.92,5.74,4.92a7.19,7.19,0,0,0,2.76-.5l1-1.88h-.06a5.28,5.28,0,0,1-3.28,1.06,3.74,3.74,0,0,1-4-3.86Zm-7.26-1.16a2.49,2.49,0,0,1,2.58-2,2.31,2.31,0,0,1,2.58,2Z" transform="translate(-13 -108.46)"/><path class="cls-6" d="M75.63,135.23l9-3.62m-11.34.3,6.33-3.73m-9.26.39,8.27-6.94M67.37,126l5.4-6.11m-8.68,3.23L69.81,114M50.09,145.55l2.09-34.17m-2.09,34.17,13.1-31.63m-13.1,31.63-8.57-33.14m8.57,33.14L31.2,117m18.89,28.54L23.68,123.78m26.41,21.77L18.24,133m31.85,12.55-34.17-2.09m34.17,2.09-33.28,8m33.28-8L20.9,163.43m29.19-17.88L27.41,171.19m22.68-25.64-3.25-37.07m3.25,37.07L35,111.55m15.14,34L25.19,117.9m24.9,27.65L17.86,126.94m32.23,18.61-36.4-7.74m36.4,7.74L13,148.79m37.07-3.24-34.5,13.94m34.5-13.94L21.58,169.47m28.51-23.92L29.82,176.76m20.27-31.21,8.37-36.26" transform="translate(-13 -108.46)"/><path class="cls-7" d="M35.43,169.94a28.46,28.46,0,1,1,40.74-35.79c.08.19.47,2.19.55,2.38s-25.81,0-25.81,0L36.82,169.22l-1.39.72Z" transform="translate(-13 -108.46)"/><polygon class="cls-8" points="40.07 31.67 63.11 31.67 63.11 27.15 37.11 27.15 22.82 61.27 27.71 61.27 40.07 31.67 40.07 31.67"/><polygon class="cls-8" points="63.11 61.56 63.11 57.19 48.31 57.19 48.31 30.51 43.78 30.51 43.78 61.71 63.11 61.71 63.11 61.56 63.11 61.56"/><polygon class="cls-9" points="26.17 41.97 26.04 42.09 57.57 42.09 57.57 46.62 24.37 46.62 26.17 41.97 26.17 41.97"/></svg>