<svg id="Livello_1" data-name="Livello 1" xmlns="http://www.w3.org/2000/svg" viewBox="0 0 609.45 291.22"><defs><style>.cls-1{fill:#dc0814;}.cls-2,.cls-3{fill:#1c272c;}.cls-3{fill-rule:evenodd;}.cls-4{fill:#fff;}</style></defs><rect class="cls-1" y="203.35" width="609.45" height="87.87"/><path class="cls-2" d="M297.91,322l6.56-9.44c-16-2.62-31.73-8.13-44.32-19.15-24.66,19.94-48.26,30.17-74,30.17-18.36,0-44.59-7.87-44.59-31.74,0-7.34,6.3-14.95,14.43-14.95,5.25,0,10,4.46,10,10.75,0,5.77-4.2,10.23-9.18,10.23-5.25,0-8.66-3.67-8.66-7.6a13.34,13.34,0,0,1,.52-3.41l-.52-.53c-2.1,2.1-2.88,4.72-2.88,8.13,0,12.85,18.36,25.44,40.65,25.44,26,0,51.93-13.11,71.08-29.11-15.74-16-28.07-35.41-28.07-61.11,0-25.18,16.53-46.95,38.56-46.95,26.75,0,46.69,24.65,53.51,51.93,56.39-51.14,99.4-94.16,163.66-97.83-55.87,43-120.39,118-162.35,173.37,11.54-.53,24.13-4.46,36.72-15.21l1.83-1.58,1.31,1.84-1.57,1.31C347,307.82,334.37,312.8,320,313.85l-6,8.13h-16m-65.3-91.27c0,21,10.75,41.44,27.8,57.44,14.43-10.76,40.13-32.53,57.7-50.62-5.77-26-23.08-48-48.26-48C251.75,189.53,232.61,207.1,232.61,230.71Zm86.29,10.75c-16.52,17.31-42.23,38.82-55.87,49.31,10.76,10,27.54,15.47,43.54,18.1C317.06,291.29,320,275.29,320,263,320,253.26,320,246.44,318.9,241.46ZM316.54,295l.52.52c45.11-57.7,95.47-113.57,156.85-154.48l-.53-.53c-57.17,7.61-106.48,57.7-151.6,98.36a139.14,139.14,0,0,1,1.84,21.51C323.62,269.52,322.31,283.43,316.54,295Z" transform="translate(-108.31 -136.81)"/><path class="cls-2" d="M380,280.28l-.52-.53c-4.72,4.46-9.71,9.18-17.31,15.48l-1.58,1.31L359,295l1.84-1.58c11.8-10.23,25.18-22.55,44.32-42.49,21.25-21.77,69.77-77.11,97.57-77.11,5.25,0,7.35,3.67,7.35,7.87,0,18.36-47,54.55-95.48,73.7C373.45,301,366.1,310.7,366.1,316.74c0,2.09,1.84,4.72,6.3,4.72,5.24,0,19.67-10,38.81-26.49l1.84-1.58,1.31,1.84-1.57,1.31c-31.74,26.49-35.94,27-42.49,27-6.3,0-9.44-4.46-9.44-10.5,0-8.91,8.65-20.72,19.14-32.78m38.3-29.38c19.15-6.56,89.7-48.26,89.7-70.29,0-2.36-2.1-4.72-5.51-4.72-17.05,0-52.19,37.77-84.72,74.49Z" transform="translate(-108.31 -136.81)"/><path class="cls-2" d="M411.21,295l1.84-1.58c11.28-9.44,33.31-27.28,39.08-30.68,5.51-3.15,35.67-34.89,41.44-41.18,7.87-8.4,47.21-47.74,66.88-47.74,3.67,0,8.13,2.89,8.13,7.08,0,24.92-53.5,58.75-98.09,77.38-7.61,8.13-44.85,49-44.85,56.39,0,3.67,1.57,6.82,5.5,6.82,8.4,0,23.61-9.44,39.35-22.3.79-12.32,13.64-29.64,21-29.64,1.31,0,2.89.79,2.89,3.68,0,6.29-8.13,14.95-21.77,26.75.52,2.36,2.88,5.51,5.5,5.51,4.2,0,8.14-2.1,17.84-10.49l1.83-1.58,1.32,1.84-1.58,1.31c-9.7,8.13-14.42,11-19.67,11-3.14,0-6.29-3.68-7.08-6-17.05,14.17-31.47,22-39.61,22-8.39,0-10.75-6-10.75-11.54,0-10.76,4.46-17.84,23.87-40.14l-.52-.52c-9.18,7.08-17.32,13.9-29.38,23.87l-1.57,1.31L411.21,295M560.45,175.89c-16.52,0-39.34,24.92-86.29,78.16v-.53l.53.53c22-11.28,45.37-22,64.78-38,8.39-6.56,27-23.61,27-34.36C566.48,178,563.08,175.89,560.45,175.89Z" transform="translate(-108.31 -136.81)"/><path class="cls-2" d="M537.63,270.05l-21.24,24.13c-15.74,17.84-18.1,21-18.1,24.65,0,1.58,1.83,2.63,3.41,2.63,5.24,0,16-6,39.86-26.49l1.84-1.58,1.31,1.84-1.57,1.31c-23.35,19.41-33.84,27-41.44,27-5,0-8.66-2.37-8.66-7.35,0-9.44,7.61-18.62,27-38.82l-.53-.52c-6.82,6.56-14.16,13.11-20.45,18.36l-1.58,1.31L495.93,295l1.83-1.58c7.87-6.82,17-14.95,26.49-23.34h13.38" transform="translate(-108.31 -136.81)"/><path class="cls-2" d="M564.12,295c8.13-8.13,18.1-17.84,18.1-21.25,0-1.84-.26-3.15-2.36-3.15-4.2,0-13.64,6.56-35.15,24.66l-1.57,1.31L541.56,295l1.84-1.58c22-18.88,31.73-24.91,36.46-24.91a7.22,7.22,0,0,1,7.6,7.34c0,5.25-3.41,10.75-8.65,17.57h.52c10.23-8.91,28.33-24.91,39.87-24.91,5.77,0,10,3.67,10,8.65,0,15.74-31.74,30.95-31.74,40.39a3.81,3.81,0,0,0,3.67,3.94c6,0,26.23-16.26,38.3-26.49l1.83-1.58,1.31,1.84L641,296.54c-17.84,14.69-32.79,27-39.87,27-4.46,0-7.34-3.41-7.34-7.61,0-20.72,30.16-33.31,30.16-42,0-1.83-2.1-3.41-4.2-3.41-14.94,0-44.06,30.17-56.39,40.4a106.59,106.59,0,0,0-11.28,11H537.37l26.75-27" transform="translate(-108.31 -136.81)"/><path class="cls-2" d="M681.09,270.05l-21.24,24.13c-15.74,17.84-18.1,21-18.1,24.65,0,1.58,1.84,2.63,3.41,2.63,5.25,0,16-6,39.87-26.49l1.83-1.58,1.32,1.84-1.58,1.31c-23.34,19.41-33.83,27-41.44,27-5,0-8.66-2.37-8.66-7.35,0-9.44,7.61-18.62,27-38.82l-.52-.52c-6.82,6.56-14.17,13.11-20.46,18.36L641,296.54,639.39,295l1.84-1.58c7.86-6.82,17-14.95,26.49-23.34h13.37" transform="translate(-108.31 -136.81)"/><path class="cls-3" d="M557,240.25a6,6,0,1,1-6-6,6,6,0,0,1,6,6" transform="translate(-108.31 -136.81)"/><path class="cls-3" d="M700.3,240.25a6,6,0,1,1-6-6,6,6,0,0,1,6,6" transform="translate(-108.31 -136.81)"/><path class="cls-4" d="M203.66,387.86c-3.8.07-5.09,1.22-5.09,4.52v10.68c-5.16,2.37-12.55,4.52-18.71,4.52-18.14,0-26.89-10.11-26.89-23.88,0-13.12,10.83-22.8,26.1-22.8,7.38,0,13.12,2.51,15.56,2.51a2.39,2.39,0,0,0,2.15-.93h1.79V375.6H195.7c-1.93-7.32-7.38-11.62-14.84-11.62-10.18,0-17.21,8-17.21,19.65S171,404.14,181,404.14a16.17,16.17,0,0,0,7.67-1.87v-9.89c0-3.59-1.51-4.37-8.82-4.52v-2.73h23.8v2.73" transform="translate(-108.31 -136.81)"/><path class="cls-4" d="M287.81,398.54c0,3.66,1.58,5.24,5.66,5.24h2.15v2.8H270.53v-2.8h1.14c4.38,0,6.24-1.08,6.24-5.24V370.22c0-3.44-.93-5.45-5.73-5.45h-1.51V362c3.58-.22,6.31-.36,9.25-.58,4-.29,9.18-.5,11.76-.5,10.54,0,16.28,1.36,19.86,5A11.09,11.09,0,0,1,315,374c0,5.45-3.94,9.75-10.61,11.55,4.73,3.94,7.24,9.6,12.33,14.69,2.94,2.94,4.95,3.81,9.47,4.23v2.8c-1.58.07-2.29.07-4.45.07-8.89,0-12.55-1.29-15.91-4.66-3.59-3.58-7.75-11.11-12.34-15.05h-5.66v10.89m0-13.91h2.79c8.68,0,13.7-2.65,13.7-10.32S298.49,364,291.54,364h-3.73Z" transform="translate(-108.31 -136.81)"/><path class="cls-4" d="M415.34,360.61c15,0,25.59,9.4,25.59,22.81,0,12.76-9.82,24.16-26.95,24.16-16.5,0-26.11-10.54-26.11-22.59,0-14.2,11.47-24.38,27.47-24.38m.28,43.88c10,0,14.63-8.6,14.63-18.5,0-11.54-5.74-22.3-16.64-22.3-9.1,0-15.05,7-15.05,17.86C398.56,395.24,405.51,404.49,415.62,404.49Z" transform="translate(-108.31 -136.81)"/><path class="cls-4" d="M545.44,362H564v2.79h-.5c-5.74,0-6.6,2.51-6.6,6v17.86c0,16-11.62,19-20.15,19-12.9,0-21.08-5.59-21.08-16.56V369.65c0-3.59-1-4.88-5-4.88h-1.22V362h22.45v2.79h-1.22c-3,0-5.09,1.36-5.09,4.88V391c0,8.74,6.45,11.75,13,11.75,9.39,0,14.05-5.3,14.05-13.19V372.16c0-5.09-1.43-7.39-5.88-7.39h-1.29V362" transform="translate(-108.31 -136.81)"/><path class="cls-4" d="M646.87,398.4c0,4.16,1.58,5.38,6.24,5.38h2.15v2.8H630.88v-2.8H632c3.94,0,5-.86,5-4.09V368.93c0-3.3-1.07-4.16-5-4.16h-1.58V362c2.8-.15,6.67-.58,11.62-.79,4.72-.22,9.39-.36,11.4-.36,13.84,0,19.71,6.67,19.71,14.05,0,8.32-7,13.63-18.07,13.63a48.71,48.71,0,0,1-8.17-.72V398.4m0-13.55a21.63,21.63,0,0,0,5.16.5c6.67,0,10.4-3.87,10.4-10.9,0-6.59-3.87-10.47-10.47-10.47a25.1,25.1,0,0,0-5.09.5Z" transform="translate(-108.31 -136.81)"/></svg>