<?xml version="1.0" encoding="utf-8"?>
<!-- Generator: Adobe Illustrator 26.5.0, SVG Export Plug-In . SVG Version: 6.00 Build 0)  -->
<svg version="1.1" id="Calque_1" xmlns="http://www.w3.org/2000/svg" xmlns:xlink="http://www.w3.org/1999/xlink" x="0px" y="0px"
	 viewBox="0 0 606.6 141.7" style="enable-background:new 0 0 606.6 141.7;" xml:space="preserve">
<style type="text/css">
	.st0{fill-rule:evenodd;clip-rule:evenodd;}
	.st1{fill:#164194;}
</style>
<path class="st0" d="M117,41.9v-1.5c0-0.8-0.7-1.6-1.6-1.6h-14c-0.8,0-1.6,0.7-1.6,1.6v85.9c0,0.8,0.7,1.6,1.6,1.6h15.3
	c0.9,0,1.6-0.7,1.6-1.6V98.3h0.2c1.2,0,1.6,0.1,2.7,0.7c4.5,2.6,7.3,3.4,11.8,3.4c8,0,15.8-3.2,21.6-8.9c6-6,8.6-13.1,8.6-23.9
	c0-19.9-11-32.1-29.3-32.1c-5.6,0-9,0.8-14.3,3.7c-1,0.5-1.4,0.6-2.3,0.6H117V41.9z M118.2,80.6V60c0-6,3.7-8.9,11-8.9
	c9.9,0,15,6.3,15,18.7c0,13-5,19.4-15.2,19.4C121.8,89.1,118.2,86.3,118.2,80.6z"/>
<path class="st0" d="M222.3,70.2c0,20.6,12.1,32.9,32.1,32.9c11,0,17.3-2.1,23.4-7.5c6.7-6,9.9-14,9.9-25c0-11.1-3.4-19.8-9.9-25.9
	c-5.8-5.3-12.1-7.4-22.6-7.4c-10.5,0-17.5,2.2-23.1,7.3C225.9,50.3,222.3,59.5,222.3,70.2z M241.4,69.7c0-13.2,4.6-20.1,13.7-20.1
	c8.5,0,13.4,7.3,13.4,19.7c0,14.3-4.4,21.4-13.6,21.4C245.9,90.7,241.4,84,241.4,69.7z"/>
<path class="st0" d="M345.3,101.5h15.3c0.8,0,1.6-0.7,1.6-1.6V40.4c0-0.8-0.7-1.6-1.6-1.6h-15.3c-0.8,0-1.6,0.7-1.6,1.6v59.5
	C343.7,100.6,344.4,101.5,345.3,101.5z M342.4,22.3c0,5.3,3.7,8.2,10.3,8.2c6.8,0,10.7-3,10.7-8.1s-3.9-8.2-10.1-8.2
	C346.4,14.2,342.4,17.1,342.4,22.3z"/>
<path class="st0" d="M411.5,64.5l-8.6-4.8c-3-1.6-3.5-2-4.1-3c-0.2-0.6-0.5-1.3-0.5-2c0-3.1,2.7-4.9,7.7-4.9c4.6,0,8.8,1.3,13.7,4.2
	c1,0.5,1.4,0.7,1.9,0.7c0.9,0,1.5-1,1.5-2.3V44c0-2-0.5-2.6-3.1-3.6c-4.9-1.9-9.7-2.7-15.2-2.7c-14.8,0-23.6,7.5-23.6,20.1
	c0,7.9,3.1,12.3,12.1,17.4l8.2,4.5c3.5,2,4.1,2.3,4.9,3.4c0.5,0.6,0.7,1.5,0.7,2.3c0,3.2-2.4,4.9-7.2,4.9c-5.6,0-11.7-1.4-15.9-3.7
	l-1.2-0.6c-0.5-0.2-1-0.3-1.4-0.3c-1,0-1.6,0.7-1.6,2.1v7.5c0,1.9,0.5,2.3,4.2,3.8c4.9,2.1,11.7,3.5,17.2,3.5
	c13.8,0,23.1-7.9,23.1-19.7C424.1,74.6,420.6,69.6,411.5,64.5z"/>
<g>
	<path class="st0" d="M193.8,42.5v-2c0-0.8-0.7-1.6-1.6-1.6h-14c-0.8,0-1.6,0.7-1.6,1.6v59.4c0,0.8,0.7,1.6,1.6,1.6h15.3
		c0.8,0,1.6-0.7,1.6-1.6v-38c0-7.1,2.3-9.3,9.4-9.3c3.6,0,6.5,0.3,9.7,1.4c0.5,0.1,1,0.2,1.4,0.2c1.3,0,1.7-0.8,1.7-2.6v-9.3
		c0-2.8-1.2-3.6-5.2-3.6h-0.7l-3.2,0.1c-3.5,0.1-6.3,0.8-10.1,2.4c-1.9,0.8-2.3,0.9-3.8,0.9h-0.5V42.5z"/>
</g>
<g>
	<path class="st0" d="M302.6,101.3h15.3c0.8,0,1.6-0.7,1.6-1.6V15.3c0-0.9-0.7-1.7-1.6-1.7h-15.3c-0.8,0-1.6,0.7-1.6,1.7v84.5
		C301,100.6,301.7,101.3,302.6,101.3z"/>
</g>
<path class="st0" d="M31.1,75.6h26.7l7.9,24.9c0.2,0.7,0.9,1.2,1.7,1.2h17.3c1.5,0,2.3-0.7,2.3-1.9c0-0.1,0-0.3,0-0.7l-0.5-1.3
	L61,20.8c-0.3-1.4-0.6-2.2-0.9-2.8c-0.3-1-0.9-2-1.6-2.8c-1.4-1.5-2.1-1.7-6.6-1.7H41.7c-3,0-4.2,0.2-5.3,1.2
	c-1.4,1-1.7,1.4-2.7,4.4L8,98c-0.6,1.5-0.6,1.7-0.6,2.1c0,1,0.8,1.6,2.2,1.6h11.9c0.8,0,1.4-0.5,1.7-1.2L31.1,75.6z M54.7,62.5H34.7
	l10.5-32.2L54.7,62.5z"/>
<rect x="123.6" y="115.5" class="st1" width="474.4" height="12.4"/>
<g>
	<g>
		<path d="M502.9,52.3c2-1.3,4.3-1.6,6.4-2.6c2.1-0.9,3.8-2.6,5.3-4.2c0.1-0.1,1.3-1.6,1-1.5c-0.9,0.5-1.7,1.4-2.4,2.1
			c1-1.2-0.6,0-1,0.1c-0.8,0.3-1.6,0.6-2.4,0.8c-1.4,0.5-2.7,0.9-3.9,1.7c-0.9,0.6-1.9,1.6-2.6,2.4
			C503.2,51.6,502.1,52.9,502.9,52.3L502.9,52.3z"/>
	</g>
	<g>
		<path d="M509.8,50.9c4.8,2.6,7.7,9.2,8,14.3c0-0.3,1.9-1.2,1.9-1.9c-0.3-5.1-3.2-11.7-8-14.3C511.2,48.9,509.8,51,509.8,50.9
			L509.8,50.9z"/>
	</g>
	<g>
		<path d="M526.1,58.7c-2.6-0.1-6.1,1.4-6.1,4.4c0,2.9,4.4,3.2,5.4,5.6c1.6,3.9-3.2,8.8-5.3,11.7c-0.1,0.2,1.4-1,1.6-1.5
			c2.4-3.4,5.6-6.6,5.7-11c0.1-1.9-1.3-2.8-2.7-3.4c-2.2-1-4.5-4.2-0.5-4.1C525,60.5,525.7,58.6,526.1,58.7L526.1,58.7z"/>
	</g>
	<g>
		<path d="M476.4,55.4c2-9.9-2.2-17.9-0.3-27.5"/>
		<path d="M568.6,101.5c-3.8,0.1-7.5,0-11.4,0.2c-0.9,0-2-23-2.1-25.7c-0.6-12.8-0.2-25.5,0.1-38.3c0.1-5.8,0.1-11.6,0-17.4
			c0-1.4-0.1-2.8-0.1-4.2c-0.1-2.4-0.1-2.2-2.4-2.2c-3.8,0-7.7,0-11.5,0c-1.4,0-2.8,3.7-3.7,3.7c2.8,0,5.6,0,8.3,0
			c-0.1,0.1-0.3,0.3-0.5,0.5c-1,0.8-2.4,1.7-2.6,2.6c-0.2,2-0.1,4.1-0.2,6l0,0c0,7.7-0.3,15.3-0.5,23l0,0c0,0.1,0,0.1,0,0.2
			c0,5.7,0,11.4,0.1,17.2c-2.8,0.5-5.4,1-7.9,2.7c-0.9,0.7-1.9,1.6-2.6,2.4c-0.1,0.1-1.3,1.5-0.3,0.9c3.2-2.2,7.1-2.4,10.9-2.9
			c0,0.2,0,0.5,0,0.7c0.3-0.3,0.8-0.8,1.2-1.2c1-0.7,2.4-1.6,2.4-2.4c0-0.2,0-0.5,0-0.7c0-0.1,0-0.1,0-0.2c0,0,0,0,0,0.1
			c-0.1-6.7-0.2-13.4-0.2-20.2c0-7.7,0.3-15.4,0.5-23.1l0,0c0-1.5,0-3,0.1-4.5c0.1-0.5,0.1-0.6,0.1-0.7s0-0.2,0-0.3
			c0.5,0,0.9,0,1.4,0c1.2,0,2.3,0,3.4,0c0.1,0,0.2,5,0.2,5.3c0.2,5.8,0.2,11.7,0.1,17.5c-0.2,13.1-0.6,26.1-0.1,39.2
			c0,0.8,0.2,3.4,0.3,6.7c-2.4-5.8-8.1-10-14.8-10c-8.8,0-16,7.2-16,16c0,1.6,0.2,3.1,0.7,4.6c-1.6,0.1-3.2,0.1-4.9,0.2
			c1-0.8,2.8-1.7,2.8-2.7c-0.1-5.6,3-14.4,8.1-17.3s12.2-2.1,17.6-0.9c1.2,0.2,3.1-3.8,3.7-3.7c-8.5-1.6-16.5-1.3-22.8,4.9
			c-5.2,5.1-10,12.3-10.3,19.8c-13,0.8-25.9,2.8-38.7,0.5c-0.3-0.1-0.7,0.2-1.2,0.7c0.3-1.2,0.5-2.3,0.5-3.6c0-7.4-6-13.4-13.4-13.4
			s-13.4,6-13.4,13.4c0,0.6,0,1.2,0.1,1.7c-12.1,0.7-7.4-22.3-3.2-29.6c8.6,0.6,17,0.7,25.6,2.2c7.4,1.3,16,3.4,20.8,9.6
			c0,0.1,2-1.6,1.9-1.9c-4.1-5.3-10.8-7.5-17.2-8.9c-7.4-1.7-15.2-2.4-22.7-2.9c-2.9-0.1-5.8,0.2-8.6-0.2c-1.2-0.1-4.3-2.4-3.1-3.1
			c4.1-2.3,9.9-2.6,14.5-3c4.1-0.3,8.1-0.9,12.2-1.3c2.9-0.2,6.1-0.5,8.8,0.8c2.7,1.3,2,6,4.2,8c2,1.9,6.6,0.7,9,1.3
			c3.8,1,7.1,3.6,9.7,6.5c2.6,2.8,4.2,6.3,6.7,9c2.3,2.4,5.6,3.4,8.8,3.8c0.6,0.1,1.5-1.9,1.9-1.9c-3.4-0.5-6.3-1.4-8.8-3.8
			c-3-2.8-4.8-7-7.5-10c-2.9-3-7-5.4-11.1-5.9c-2.9-0.3-5.2-0.1-6.8-1.4c0,0,0,0,0.1,0c4.6-1.6,15.3-3.5,16.6,3.5
			c-0.1-0.6,3.9-2.4,3.7-3.7c-0.8-4.3-5.3-4.9-9-4.9c-1.6,0-3.2,0.2-4.9,0.6c-0.8,0.1-1.5,0.3-2.3,0.6c-0.1,0,0.3-3.8,0.3-4.3
			c0.2-2.7-2.3-13.3-7-10.1c-2.2,1.5-4.1,3.5-4.9,5.9c0.3-7.5-1.7-15.1-0.9-22.7c0.5-1.7,1.2-3.4,2.4-4.8c2.7-3.2,7.8-3.9,11.7-4.4
			c0.8-0.1,1.6-0.2,2.4-0.2l0,0c3.6-0.2,7.5-0.6,11.2-0.1c1,0.1,2.1,0.3,3.1,0.6c0.1,0,0.2,0,0.3,0.1c0.1,0,0.2,0.1,0.3,0.1
			c1.5,0.5,3,1.2,4.3,2.1c4.5,3,7.4,8.2,9.9,13c0.3,0.7,0.7,1.4,1,2.1c0.5,1,0.9,2.2,1.4,3.1c0.8,2,1.7,4.2,2.6,6.4
			c2.6,7.4,4.3,15.5,4.8,23c0,1.3,0.1,1.9,0.2,1.7c0.1,0.1,0.2-0.5,0.2-1.7c0.7-11.7-3.2-24-7.9-34.8c-1.6-3.7-3.7-7.3-6.1-10.5
			c-0.1-0.1-0.2-0.2-0.3-0.3c-0.1-0.2-0.3-0.5-0.5-0.6c-0.7-0.9-1.4-1.7-2.2-2.6c-0.2-0.2-0.3-0.5-0.6-0.6c-0.5-0.5-0.8-0.8-1.3-1.2
			c-0.1,0-0.1-0.1-0.1-0.1c-4.6-3.9-11.2-3.9-17-3.6c-5.3,0.2-11.4,0.5-16,3.5c-3.1,2.1-4.2,6-4.5,9.6c0,0,0,0,0,0.1
			c-1.4,9,1.9,18,0.5,27c-3.2-0.2-6.6,0.3-9.9,0.8c-4.2,0.6-8.2,0.7-12.4,1.4c-3.7,0.6-8,1.2-10.9,3.8c-3.1,3-0.7,5,2.9,5.4
			c-0.8,0.7-1.6,1.5-2.2,2.3c-4.6,7-11,35.2,5.4,30.4c0.3-0.1,0.8-0.5,1.2-0.9c1.7,5.4,6.8,9.5,12.9,9.5c4.9,0,9.2-2.7,11.6-6.6
			c15.4,2.6,30.7-0.8,46.3-0.9c0.6,0,1.2-0.6,1.7-1.4c2.6,5.4,8.1,9.2,14.5,9.2c7.4,0,13.7-5.1,15.5-11.9c0.3,4.9,0.7,8.9,0.8,8.9
			c3.5-0.3,7.1-0.2,10.5-0.2c9.9-0.1,20.1,0.3,29.9-0.9c1.5-0.2,2.6-3.5,3.7-3.7C588,101.8,578.1,101.3,568.6,101.5z M476.7,55.2
			v-0.1c0.1-0.8,0.2-1.7,0.3-2.6c0.8-0.7,3.1-2,3.4-3.1c0-0.2,0.1-0.3,0.1-0.6c0.1,0.2,0.2,0.3,0.6,0.5c1.2,0.5,2,2,2.6,2.9
			c2.1,3.4,1.9,7.9,0.7,11.6c0,0.1,0,0.1,0,0.1c-0.8-0.7-1.5-1.7-1.9-3.5c-0.8-3.4-2-4.4-5.4-4.9c-0.1,0-0.2,0-0.3,0
			C476.7,55.4,476.7,55.3,476.7,55.2z M463.2,104.9c-5.6,0-10.2-4.5-10.2-10.2c0-5.6,4.5-10.2,10.2-10.2c5.7,0,10.2,4.5,10.2,10.2
			C473.3,100.4,468.7,104.9,463.2,104.9z M537,105.2c-7.1,0-12.8-5.7-12.8-12.8c0-7.1,5.7-12.8,12.8-12.8c7.1,0,12.8,5.7,12.8,12.8
			C549.8,99.4,544.1,105.2,537,105.2z"/>
	</g>
</g>
</svg>
