<svg id="Livello_1" data-name="Livello 1" xmlns="http://www.w3.org/2000/svg" viewBox="0 0 499.99 116.16"><defs><style>.cls-1{fill:#e53239;}</style></defs><path class="cls-1" d="M58.08,118.16A58.06,58.06,0,0,1,16,20.12l.19-.2,28,48.26a16.21,16.21,0,1,0,1.54-18.37l-.19.22L24,13l.15-.1a58.07,58.07,0,1,1,33.9,105.22ZM15.52,43.7a45.11,45.11,0,0,0-3,16.38A45.63,45.63,0,1,0,41.16,17.73l8.68,15a28.6,28.6,0,1,1-16.5,41.74Z" transform="translate(0 -2)"/><path class="cls-1" d="M472.42,94.92c-15.2,0-27.57-12-27.57-26.82s12.38-26.82,27.57-26.82S500,53.31,500,68.1,487.62,94.92,472.42,94.92Zm0-41.44A14.62,14.62,0,1,0,486.88,68.1,14.55,14.55,0,0,0,472.42,53.48Z" transform="translate(0 -2)"/><path class="cls-1" d="M262.7,94.92c-16.29,0-28.59-11.53-28.59-26.82s12.38-26.83,27.58-26.83,27.57,12,27.57,26.83a26.67,26.67,0,0,1-.35,4.34l0,.17H247.94c2,6.34,7.51,10.11,14.77,10.11a14.39,14.39,0,0,0,10.81-4.92l.09-.09,12.6,4.43-.13.21a27.62,27.62,0,0,1-23.36,12.57Zm12.65-31.59a14.41,14.41,0,0,0-27.34,0h27.34Z" transform="translate(0 -2)"/><path class="cls-1" d="M167.6,94.92c-15.56,0-28.22-12-28.22-26.83V25.23h13v22a23.52,23.52,0,0,1,15.85-6c14.43,0,26.17,12,26.17,26.83A26.82,26.82,0,0,1,167.6,94.93Zm-.8-41.44A14.62,14.62,0,1,0,181.26,68.1,14.56,14.56,0,0,0,166.8,53.48Z" transform="translate(0 -2)"/><path class="cls-1" d="M412.24,94.92c-15.56,0-28.22-12-28.22-26.83V25.23h13v22a23.55,23.55,0,0,1,15.85-6c14.43,0,26.17,12,26.17,26.83a26.82,26.82,0,0,1-26.77,26.82Zm-.8-41.44A14.62,14.62,0,1,0,425.9,68.1,14.56,14.56,0,0,0,411.44,53.48Z" transform="translate(0 -2)"/><path class="cls-1" d="M201.61,93.92V59.52c0-10.63,6.68-17.23,17.41-17.23h12.53V54.74h-9c-4.15,0-8,.87-8,7.2v32h-13Z" transform="translate(0 -2)"/><path class="cls-1" d="M363.68,93.93v-27c0-9.17-5.66-12.43-10.49-12.43-1.77,0-10.63.59-10.63,12v27.4H329.65V66.53c0-11.45-8.85-12-10.63-12-4.84,0-10.48,3.26-10.48,12.43v27H295.92V63.34c0-13.75,11.41-22,22.44-22a22.92,22.92,0,0,1,17.76,8.27,22.89,22.89,0,0,1,17.75-8.27c11,0,22.46,8.22,22.46,22V93.93H363.68Z" transform="translate(0 -2)"/></svg>