<svg id="Livello_1" data-name="Livello 1" xmlns="http://www.w3.org/2000/svg" viewBox="0 0 1162.2 323.95"><defs><style>.cls-1{fill:#868686;}.cls-2{fill:#0b7bc0;}.cls-3{fill:#deeaf9;}.cls-4{fill:#69abde;}.cls-5{fill:#fff;}</style></defs><path class="cls-1" d="M335.77,500.75H322.25V489.18h13.52Zm0,81.59H322.25V517.73h13.52Z" transform="translate(-14.84 -259.66)"/><path class="cls-1" d="M364.4,517.73l.79,9.6a22.3,22.3,0,0,1,7.69-7.94,19.69,19.69,0,0,1,10.53-2.84q9.55,0,14.88,6.32t5.35,19.71v39.76H390.18V542.63q0-9.14-2.81-12.88c-1.89-2.51-4.73-3.78-8.54-3.78a14.15,14.15,0,0,0-7.93,2.17,15.51,15.51,0,0,0-5.3,6v48.17H352.08V517.73Z" transform="translate(-14.84 -259.66)"/><path class="cls-1" d="M431.21,517.73l.79,9.6a22.49,22.49,0,0,1,7.7-7.94,19.69,19.69,0,0,1,10.53-2.84q9.56,0,14.88,6.32t5.34,19.71v39.76H457V542.63c0-6.09-.93-10.38-2.82-12.88s-4.71-3.78-8.51-3.78a14.28,14.28,0,0,0-8,2.17,15.67,15.67,0,0,0-5.3,6v48.17H418.88V517.73Z" transform="translate(-14.84 -259.66)"/><path class="cls-1" d="M483.11,549.33q0-14.39,7.55-23.59t20.75-9.19q13.19,0,20.78,9.19t7.58,23.59v1.6q0,14.49-7.55,23.56t-20.68,9.13q-13.32,0-20.88-9.13t-7.55-23.56Zm13.52,1.6q0,10.34,3.68,16.93a12.08,12.08,0,0,0,11.23,6.55,11.92,11.92,0,0,0,11-6.61c2.45-4.4,3.67-10,3.67-16.87v-1.6c0-6.76-1.23-12.39-3.71-16.82a12.6,12.6,0,0,0-22.23,0c-2.45,4.43-3.68,10.06-3.68,16.82Z" transform="translate(-14.84 -259.66)"/><polygon class="cls-1" points="557.87 303.28 559.01 308.37 559.4 308.37 560.6 303.28 573.12 258.06 587.04 258.06 565.17 322.68 553.17 322.68 531.16 258.06 545.21 258.06 557.87 303.28"/><path class="cls-1" d="M647.75,582.34c-.57-1.93-1-3.67-1.36-5.21a30.35,30.35,0,0,1-.63-4.58,24.46,24.46,0,0,1-7.52,7.93,18.82,18.82,0,0,1-10.64,3.14q-9.61,0-14.75-5.15c-3.43-3.43-5.14-8.09-5.14-14a16.88,16.88,0,0,1,7.13-14.39q7.11-5.28,19.85-5.27h11v-6.61c0-3.95-1-7-2.91-9.26s-4.73-3.3-8.36-3.3a10.6,10.6,0,0,0-7.79,2.86,10,10,0,0,0-2.88,7.36l-12.86.07-.13-.37q-.4-7.51,6.5-13.25t18-5.73q10.66,0,17.29,5.62c4.41,3.77,6.64,9.13,6.64,16.09v30a48.15,48.15,0,0,0,.52,7.18,41.63,41.63,0,0,0,1.66,6.89Zm-17.37-8.06a16.06,16.06,0,0,0,9.75-3.07,14.21,14.21,0,0,0,5.56-7.44V552.32h-11.2c-4.15,0-7.41,1.19-9.75,3.54a11.79,11.79,0,0,0-3.51,8.58,10.39,10.39,0,0,0,2.38,7.16,8.5,8.5,0,0,0,6.77,2.68" transform="translate(-14.84 -259.66)"/><path class="cls-1" d="M766.91,501.66v16.07H778.1v8.65H766.91v38.47c0,3.34.56,5.73,1.69,7.14a5.38,5.38,0,0,0,4.47,2.11,10.28,10.28,0,0,0,2.12-.18,23.13,23.13,0,0,0,2.32-.5l1.4,8.33a22.86,22.86,0,0,1-4.28,1.34,21.76,21.76,0,0,1-4.87.53q-7.75,0-12.07-4.53c-2.86-3-4.3-7.74-4.3-14.24V526.38H743.9v-8.65h9.49V501.66Z" transform="translate(-14.84 -259.66)"/><path class="cls-1" d="M804.68,500.75h-13.5V489.18h13.5Zm0,81.59h-13.5V517.73h13.5Z" transform="translate(-14.84 -259.66)"/><path class="cls-1" d="M818.41,549.33q0-14.39,7.55-23.59t20.75-9.19q13.17,0,20.78,9.19t7.59,23.59v1.6q0,14.49-7.56,23.56t-20.68,9.13q-13.32,0-20.88-9.13t-7.55-23.56Zm13.52,1.6q0,10.34,3.68,16.93a12.07,12.07,0,0,0,11.23,6.55,11.91,11.91,0,0,0,11-6.61c2.46-4.4,3.67-10,3.67-16.87v-1.6c0-6.76-1.24-12.39-3.7-16.82a12.6,12.6,0,0,0-22.24,0c-2.46,4.43-3.68,10.06-3.68,16.82Z" transform="translate(-14.84 -259.66)"/><path class="cls-1" d="M900.13,517.73l.8,9.6a22.22,22.22,0,0,1,7.69-7.94,19.69,19.69,0,0,1,10.53-2.84q9.54,0,14.88,6.32t5.34,19.71v39.76H925.91V542.63q0-9.14-2.81-12.88c-1.88-2.51-4.72-3.78-8.52-3.78a14.22,14.22,0,0,0-8,2.17,15.59,15.59,0,0,0-5.3,6v48.17H887.8V517.73Z" transform="translate(-14.84 -259.66)"/><path class="cls-2" d="M729.51,532.87c-4.14-7.31-10.39-12.07-19.33-12.07-15.52,0-20.47,15.06-20.47,28S693,578.85,711,578.85c10.56,0,15.84-7.29,20.47-13.55l5.3,2.09c-5.13,8.49-13.39,16.23-29.41,16.23-20,0-35-13.84-35-33.93,0-17.86,14.21-33.66,35.83-33.66,14,0,20.81,6.11,27.42,14.15Z" transform="translate(-14.84 -259.66)"/><path class="cls-2" d="M417.64,378.14c-7.69-15.07-19.38-24.92-36-24.92-28.91,0-38.14,31.07-38.14,57.83,0,26.47,6.16,62.15,39.68,62.15,19.69,0,29.54-15.08,38.15-28l9.85,4.31C421.65,467.05,406.25,483,376.42,483c-37.23,0-65.22-28.61-65.22-70.14,0-36.91,26.45-69.52,66.76-69.52,26.14,0,38.76,12.61,51.06,29.22Z" transform="translate(-14.84 -259.66)"/><path class="cls-2" d="M569.92,413.21c0,39.69-25.53,69.83-69.22,69.83-36.31,0-69.22-32.6-69.22-69.83,0-39.69,25.54-69.83,69.22-69.83,36.3,0,69.22,32.61,69.22,69.83m-106.13,0c0,38.15,18.45,60,36.91,60s36.92-21.84,36.92-60-18.46-60-36.92-60-36.91,21.84-36.91,60" transform="translate(-14.84 -259.66)"/><path class="cls-2" d="M574.53,467.66a204.67,204.67,0,0,0,27.07,2.16c13.54,0,28.91-3.69,28.91-20.31,0-28-59.37-27.37-59.37-64.92,0-29.83,26.15-37.83,45.84-37.83a238.75,238.75,0,0,1,30.15,2.15v9.24c-5.84-.62-11.07-1.55-17.23-1.55-13.85,0-32.91-.61-32.91,18.46,0,25.23,61.21,24,61.21,67.07,0,26.15-21.22,37.54-45.83,37.54-13.83,0-25.54-.32-37.84-3.4Z" transform="translate(-14.84 -259.66)"/><path class="cls-2" d="M672,260h27.69v86.75H724c36.93,0,68.62,21.84,68.62,68.3,0,23.07-13.85,64.61-64,64.61H672Zm27.69,209.81h18.15c29.23,0,42.46-26.46,42.46-53.84,0-28.6-12.61-59.38-47.38-59.38H699.73Z" transform="translate(-14.84 -259.66)"/><path class="cls-2" d="M893.85,356.6h-52.6c-4,0-6.77,1.24-6.77,6.16V404.6H883.4v12.92H834.48v43.07c0,6.15,3.69,9.23,10.46,9.23h52.61v9.85H828c-13.23,0-21.23-6.16-21.23-23.38V374.14c0-13.23,1.84-27.38,24-27.38h63.06Z" transform="translate(-14.84 -259.66)"/><path class="cls-2" d="M911.7,479.67V346.76h58.14c22.15,0,40,13.54,40,35.69,0,20.61-10.17,26.77-28.62,32.61l36,64.61h-32L952,413.21h3.09c19.68,0,27.07-11.69,27.07-29.84,0-12.92-6.46-26.77-29.54-26.77H939.38V479.67Z" transform="translate(-14.84 -259.66)"/><path class="cls-2" d="M1120,379.38c-8.91-12.94-17.22-26.16-33.84-26.16-29.83,0-36.91,35.07-36.91,60.91,0,24.92,8.62,59.07,38.15,59.07,10.15,0,23.37-11.08,23.37-28.91V413.83h25.54V540.57h-25.54V472c-8,6.15-20.3,11.07-31.07,11.07-41.22,0-62.75-31.68-62.75-68.29,0-41.84,23.38-71.37,65.53-71.37,21.83,0,38.13,11.68,48.91,28.31Z" transform="translate(-14.84 -259.66)"/><path class="cls-1" d="M1140.68,358.46a18.19,18.19,0,1,1,18.18,18.13,18,18,0,0,1-18.18-18.13m3,0a15.23,15.23,0,1,0,15.22-15.17,15.18,15.18,0,0,0-15.22,15.17m23.53,10.34h-3.37l-5.21-9.42h-3.79v9.42h-2.94V348.41h8.57c3.7,0,7,1.11,7,5.4,0,4-2.72,5.48-5.45,5.57Zm-12.37-17.44v5.07h3.13c2.78,0,6.57.47,6.57-2.3,0-2.59-2.17-2.77-4.62-2.77Z" transform="translate(-14.84 -259.66)"/><polygon class="cls-3" points="0 109.97 71.45 0 194.22 0 122.78 109.97 0 109.97"/><polygon class="cls-2" points="71.45 219.95 0 109.97 122.79 109.97 194.22 219.83 71.45 219.95"/><polygon class="cls-4" points="265.68 109.97 194.22 0 122.79 109.97 194.22 219.83 265.68 109.97"/><path class="cls-5" d="M14.84,369.64,209.06,479.5V259.66Zm180.64,89-157.32-89,157.33-89.1Z" transform="translate(-14.84 -259.66)"/></svg>