<svg id="Livello_1" data-name="Livello 1" xmlns="http://www.w3.org/2000/svg" viewBox="0 0 377.56 97.32"><defs><style>.cls-1{fill:#1d1d1b;}.cls-2{fill:#aaadae;}.cls-3{fill:#69b759;}</style></defs><path class="cls-1" d="M302.61,111H287.07V69.24q14.85-.28,19-.28,16.17,0,25.59,5.3t9.43,14.14q0,22.55-38.5,22.55m-5-36.59v31.18q3.52.28,8.74.28,11.06,0,17.38-4.48a14.43,14.43,0,0,0,6.32-12.46q0-14.8-24.6-14.8c-1,0-3.6.1-7.84.28" transform="translate(-101.47 -41.3)"/><path class="cls-1" d="M372.86,111H357.32V69.24q14.85-.28,19-.28,16.17,0,25.59,5.3t9.43,14.14q0,22.55-38.5,22.55m-5-36.59v31.18q3.52.28,8.74.28,11.06,0,17.38-4.48a14.43,14.43,0,0,0,6.32-12.46q0-14.8-24.6-14.8c-1,0-3.6.1-7.84.28" transform="translate(-101.47 -41.3)"/><polyline class="cls-1" points="366.39 69.65 347.22 52.91 329.53 69.65 318.89 69.65 341.64 48.01 320.73 27.91 331.11 27.94 347.59 43.72 365.76 27.94 376.35 27.94 352.38 48.13 377.56 69.65"/><path class="cls-2" d="M143.86,137.81A64.38,64.38,0,0,0,162,121.49a52.31,52.31,0,0,0,10-31.18,52.45,52.45,0,0,0-4-20.66c-4.53-11-14.41-22.31-24.45-27.91l-.8-.44L142,42a3,3,0,0,0-.67,1,10.71,10.71,0,0,0,2.06,1.76,41.68,41.68,0,0,1,12.1,14.38C158.7,65.5,160.34,72,161.25,82c.23,2.5.32,13.22.14,15.89-.56,8.22-2.09,15-4.68,20.87-2.86,6.47-6.78,11.22-13.81,16.73-1.18.92-1.64,1.36-1.61,1.54a5,5,0,0,0,.91,1.47c.17.12.38,0,1.66-.69m-39.6-.12a67.09,67.09,0,0,0,10.54-7.93,53.48,53.48,0,0,0,14.74-22.68,50.46,50.46,0,0,0,2.56-14.15,53.1,53.1,0,0,0-10.84-35.16A60.21,60.21,0,0,0,114.43,50a48.51,48.51,0,0,0-6.58-5.59,40.49,40.49,0,0,0-5-3.07,6.06,6.06,0,0,0-1.41,1.74,6.06,6.06,0,0,0,1.3,1.08,41.77,41.77,0,0,1,14.14,17.59c2.89,6.77,4.28,14,4.77,24.85.49,10.67-.62,20.4-3.19,28.05-2.9,8.64-7.24,14.53-15.27,20.73a9.89,9.89,0,0,0-1.75,1.56,3.67,3.67,0,0,0,1.09,1.68s.81-.41,1.7-.92" transform="translate(-101.47 -41.3)"/><path class="cls-3" d="M211.82,137.88c-6-3.14-14-11.07-19.07-18.79a52,52,0,0,1-8.7-27.81,52.79,52.79,0,0,1,6.2-26.9,53.36,53.36,0,0,1,9.68-12.75,56.2,56.2,0,0,1,9-7.46,42.17,42.17,0,0,1,4.75-2.84A5.67,5.67,0,0,1,214.78,43a7.08,7.08,0,0,1-1.41,1.29,62.54,62.54,0,0,0-9.19,8.85c-5.69,7.06-8.83,16.77-9.61,29.74-.2,3.28-.08,11.83.21,15.32.81,9.59,2.57,16.5,5.86,23A39.21,39.21,0,0,0,213,135.52c.93.67,1.72,1.27,1.76,1.34a6,6,0,0,1-1.4,1.71,8.4,8.4,0,0,1-1.51-.69" transform="translate(-101.47 -41.3)"/></svg>