<svg id="Livello_1" data-name="Livello 1" xmlns="http://www.w3.org/2000/svg" viewBox="0 0 141.73 29.99"><defs><style>.cls-1,.cls-2{fill:#e94b26;}.cls-1{fill-rule:evenodd;}</style></defs><polygon class="cls-1" points="127.49 10.3 127.49 8.81 127.52 8.67 127.56 8.53 127.66 8.41 127.78 8.32 127.89 8.27 128.05 8.25 127.89 8.27 128.05 8.25 139.5 8.25 139.61 8.22 139.72 8.18 139.8 8.11 139.85 8.02 139.89 7.9 139.87 7.81 139.85 7.69 139.47 7.06 139.07 6.46 138.64 5.87 138.19 5.31 137.7 4.78 137.21 4.27 136.68 3.75 136.12 3.31 135.54 2.87 134.95 2.45 134.32 2.05 133.69 1.7 133.04 1.4 132.39 1.1 131.72 0.84 131.01 0.63 130.31 0.44 129.62 0.28 128.9 0.17 128.17 0.07 127.47 0.02 126.75 0 119.8 0 119.67 0.02 119.52 0.07 119.41 0.17 119.31 0.28 119.25 0.42 119.22 0.56 119.22 18.55 119.25 18.71 119.31 18.83 119.41 18.97 119.52 19.04 119.67 19.11 119.8 19.13 130.66 19.13 130.83 19.16 130.97 19.2 131.06 19.29 131.15 19.41 131.23 19.53 131.23 19.69 131.23 19.53 131.23 19.69 131.23 21.18 131.23 21.32 131.15 21.46 131.06 21.58 130.97 21.67 130.83 21.74 130.66 21.74 130.83 21.74 130.66 21.74 119.8 21.74 119.67 21.76 119.52 21.81 119.41 21.9 119.31 22.02 119.25 22.16 119.22 22.3 119.22 29.43 119.25 29.59 119.31 29.71 119.41 29.83 119.52 29.92 119.67 29.97 119.8 29.99 126.73 29.99 127.47 29.97 128.19 29.92 128.94 29.83 129.66 29.71 130.39 29.55 131.09 29.34 131.81 29.11 132.48 28.85 133.16 28.55 133.81 28.22 134.47 27.85 135.09 27.45 135.68 27.03 136.28 26.57 136.84 26.1 137.35 25.59 137.86 25.05 138.35 24.49 138.8 23.91 139.22 23.3 139.61 22.68 139.98 22.02 140.31 21.37 140.62 20.69 140.87 20.02 141.1 19.29 141.29 18.6 141.45 17.88 141.59 17.15 141.66 16.4 141.71 15.69 141.73 14.94 141.71 14.21 141.66 13.47 141.57 12.75 141.43 12 141.27 11.3 141.22 11.16 141.13 11.04 141.01 10.95 140.87 10.88 140.73 10.88 128.05 10.88 127.89 10.86 127.78 10.79 127.66 10.72 127.56 10.6 127.52 10.46 127.49 10.3 127.52 10.46 127.49 10.3 127.49 10.3"/><polygon class="cls-1" points="102.19 8.25 116.05 8.25 116.19 8.22 116.33 8.18 116.45 8.09 116.54 7.97 116.58 7.83 116.61 7.69 116.61 0.56 116.58 0.42 116.54 0.28 116.45 0.17 116.33 0.07 116.19 0.02 116.05 0 93.94 0 93.77 0.02 93.63 0.07 93.52 0.17 93.42 0.28 93.38 0.42 93.35 0.56 93.35 18.55 93.38 18.71 93.42 18.83 93.52 18.97 93.63 19.06 93.77 19.11 93.94 19.13 107.8 19.13 107.94 19.16 108.08 19.2 108.2 19.29 108.29 19.41 108.34 19.53 108.36 19.69 108.34 19.53 108.36 19.69 108.36 21.18 108.34 21.32 108.29 21.46 108.2 21.58 108.08 21.67 107.94 21.74 107.8 21.74 107.94 21.74 107.8 21.74 93.94 21.74 93.77 21.76 93.63 21.81 93.52 21.9 93.42 22.02 93.38 22.16 93.35 22.3 93.35 29.43 93.38 29.59 93.42 29.71 93.52 29.83 93.63 29.92 93.77 29.97 93.94 29.99 116.05 29.99 116.19 29.97 116.33 29.92 116.45 29.83 116.54 29.71 116.58 29.57 116.61 29.43 116.61 11.44 116.58 11.28 116.54 11.16 116.45 11.02 116.33 10.95 116.19 10.91 116.05 10.88 102.19 10.88 102.02 10.86 101.88 10.79 101.76 10.72 101.7 10.6 101.63 10.46 101.6 10.3 101.63 10.46 101.6 10.3 101.6 8.81 101.63 8.67 101.7 8.53 101.76 8.41 101.88 8.32 102.02 8.27 102.19 8.25 102.02 8.27 102.19 8.25 102.19 8.25"/><polygon class="cls-1" points="56.26 0.86 59.03 12.7 59.08 12.77 59.19 12.79 59.27 12.7 61.1 0.47 61.15 0.32 61.25 0.19 61.36 0.09 61.5 0.02 61.66 0 61.5 0.02 61.66 0 69.19 0 69.35 0.02 69.48 0.09 69.6 0.19 69.7 0.32 69.75 0.47 69.7 0.32 69.75 0.47 71.59 12.7 71.68 12.79 71.78 12.77 71.8 12.7 74.59 0.86 74.64 0.68 74.73 0.51 74.85 0.38 74.99 0.25 75.15 0.14 75.32 0.07 75.5 0.02 75.69 0 75.5 0.02 75.69 0 90.18 0 90.33 0.02 90.44 0.07 90.58 0.17 90.65 0.28 90.72 0.42 90.75 0.56 90.72 0.42 90.75 0.56 90.75 7.69 90.72 7.83 90.65 7.97 90.58 8.09 90.44 8.18 90.33 8.22 90.18 8.25 90.33 8.22 90.18 8.25 81.77 8.25 81.63 8.27 81.49 8.32 81.38 8.41 81.28 8.53 81.23 8.69 76.34 29.41 76.3 29.57 76.2 29.71 76.09 29.83 75.94 29.92 75.78 29.97 75.62 29.99 75.78 29.99 75.62 29.99 68.51 29.99 68.35 29.97 68.19 29.92 68.05 29.83 67.93 29.71 67.83 29.55 67.79 29.39 67.83 29.55 67.79 29.39 65.53 17.8 65.46 17.73 65.39 17.73 65.32 17.8 63.06 29.39 63.01 29.55 62.92 29.71 62.8 29.83 62.66 29.92 62.51 29.97 62.34 29.99 62.51 29.99 62.34 29.99 55.23 29.99 55.07 29.97 54.9 29.92 54.77 29.83 54.64 29.71 54.56 29.57 54.51 29.41 49.62 8.69 49.57 8.53 49.47 8.41 49.36 8.32 49.22 8.27 49.08 8.25 40.69 8.25 40.53 8.22 40.38 8.18 40.27 8.09 40.2 7.97 40.13 7.83 40.11 7.69 40.13 7.83 40.11 7.69 40.11 0.56 40.13 0.42 40.2 0.28 40.27 0.17 40.38 0.07 40.53 0.02 40.69 0 40.53 0.02 40.69 0 55.16 0 55.34 0.02 55.53 0.07 55.7 0.14 55.86 0.25 56 0.38 56.11 0.51 56.19 0.68 56.26 0.86 56.26 0.86"/><polygon class="cls-2" points="83.06 29.99 90.18 29.99 90.33 29.99 90.44 29.92 90.58 29.83 90.65 29.71 90.72 29.59 90.75 29.43 90.75 11.44 90.72 11.3 90.65 11.16 90.58 11.02 90.44 10.95 90.33 10.91 90.18 10.88 83.06 10.88 82.89 10.91 82.77 10.95 82.66 11.02 82.57 11.16 82.5 11.28 82.5 11.44 82.5 29.43 82.5 29.57 82.57 29.71 82.66 29.83 82.77 29.92 82.89 29.97 83.06 29.99 83.06 29.99"/><polygon class="cls-1" points="12.75 8.25 21.93 8.25 22.07 8.22 22.21 8.18 22.33 8.09 22.42 7.97 22.47 7.83 22.49 7.69 22.49 0.56 22.47 0.42 22.42 0.28 22.33 0.17 22.21 0.07 22.07 0.02 21.93 0 14.99 0 14.27 0.02 13.52 0.07 12.8 0.17 12.07 0.28 11.35 0.44 10.65 0.65 9.93 0.88 9.25 1.14 8.58 1.45 7.92 1.77 7.29 2.14 6.67 2.51 6.06 2.96 5.47 3.4 4.92 3.89 4.38 4.38 3.89 4.92 3.4 5.48 2.94 6.06 2.52 6.67 2.12 7.29 1.77 7.92 1.42 8.58 1.14 9.25 0.86 9.95 0.65 10.65 0.45 11.35 0.28 12.07 0.17 12.79 0.07 13.52 0 14.26 0 14.99 0 15.73 0.07 16.45 0.17 17.2 0.28 17.92 0.45 18.64 0.65 19.34 0.86 20.04 1.14 20.74 1.42 21.41 1.77 22.07 2.12 22.7 2.52 23.33 2.94 23.93 3.4 24.52 3.89 25.08 4.38 25.61 4.92 26.1 5.47 26.59 6.06 27.05 6.67 27.48 7.29 27.87 7.92 28.22 8.58 28.55 9.25 28.85 9.93 29.11 10.65 29.36 11.35 29.55 12.07 29.71 12.8 29.83 13.52 29.92 14.27 29.97 14.99 29.99 21.93 29.99 22.07 29.97 22.21 29.92 22.33 29.83 22.42 29.71 22.47 29.59 22.49 29.43 22.49 11.44 22.47 11.3 22.42 11.16 22.33 11.04 22.21 10.95 22.07 10.91 21.93 10.88 14.8 10.88 14.66 10.91 14.52 10.95 14.4 11.02 14.33 11.16 14.27 11.3 14.24 11.44 14.24 21.18 14.22 21.32 14.17 21.46 14.08 21.58 13.96 21.67 13.82 21.74 13.68 21.74 12.19 21.74 12.03 21.74 11.91 21.67 11.77 21.58 11.7 21.46 11.63 21.32 11.61 21.18 11.61 9.37 11.63 9.18 11.7 8.99 11.77 8.81 11.89 8.64 12.03 8.5 12.19 8.41 12.35 8.32 12.56 8.27 12.75 8.25 12.56 8.27 12.75 8.25 12.75 8.25"/><polygon class="cls-1" points="48.36 22.16 48.38 22.3 48.36 22.16 48.29 22.02 48.19 21.9 48.08 21.81 47.94 21.76 47.8 21.74 33.93 21.74 33.79 21.74 33.65 21.67 33.54 21.58 33.44 21.46 33.4 21.32 33.37 21.18 33.37 19.69 33.4 19.53 33.44 19.41 33.54 19.29 33.65 19.2 33.79 19.16 33.93 19.13 47.8 19.13 47.94 19.11 47.8 19.13 47.94 19.11 48.08 19.06 48.19 18.97 48.29 18.85 48.36 18.71 48.38 18.55 48.38 11.44 48.36 11.3 48.38 11.44 48.36 11.3 48.29 11.16 48.19 11.04 48.08 10.95 47.94 10.91 47.8 10.88 33.93 10.88 33.79 10.86 33.65 10.79 33.54 10.72 33.44 10.6 33.4 10.46 33.37 10.3 33.37 8.81 33.4 8.67 33.44 8.53 33.54 8.41 33.65 8.32 33.79 8.27 33.93 8.25 36.94 8.25 37.08 8.22 36.94 8.25 37.08 8.22 37.22 8.18 37.33 8.09 37.4 7.97 37.47 7.83 37.49 7.69 37.49 0.56 37.47 0.42 37.49 0.56 37.47 0.42 37.4 0.28 37.33 0.17 37.22 0.07 37.08 0.02 36.94 0 25.68 0 25.54 0.02 25.68 0 25.54 0.02 25.41 0.07 25.29 0.17 25.19 0.28 25.14 0.42 25.12 0.56 25.12 29.43 25.14 29.59 25.12 29.43 25.14 29.59 25.19 29.71 25.29 29.83 25.41 29.92 25.54 29.97 25.68 29.99 47.8 29.99 47.94 29.99 47.8 29.99 47.94 29.97 48.08 29.92 48.19 29.83 48.29 29.71 48.36 29.59 48.38 29.43 48.36 22.16 48.36 22.16"/></svg>