<svg xmlns="http://www.w3.org/2000/svg" width="247.021" height="58.939" viewBox="0 0 247.021 58.939">
  <g id="Raggruppa_4660" data-name="Raggruppa 4660" transform="translate(-185.465 -211.973)">
    <g id="Raggruppa_4657" data-name="Raggruppa 4657" transform="translate(185.465 211.973)">
      <g id="Raggruppa_4656" data-name="Raggruppa 4656">
        <g id="Raggruppa_4654" data-name="Raggruppa 4654" transform="translate(47.899 0)">
          <path id="Tracciato_103" data-name="Tracciato 103" d="M324.884,242.308h-11.2l-2.172,7.319h-9.207l12.284-37.653h4.681V212l.026-.026h4.681l12.31,37.653h-9.207Zm-9.181-6.724h7.164l-3.517-11.689H319.2Z" transform="translate(-302.308 -211.973)" fill="#004289"/>
          <path id="Tracciato_104" data-name="Tracciato 104" d="M396.412,249.626V211.973h12.336q7.008,0,10.926,2.6a8.685,8.685,0,0,1,3.918,7.745,9.132,9.132,0,0,1-1.241,4.771,7.645,7.645,0,0,1-3.879,3.142,7.831,7.831,0,0,1,4.979,3,8.84,8.84,0,0,1,1.616,5.25q0,5.508-3.7,8.327t-10.6,2.819Zm8.741-21.956h3.439a8.172,8.172,0,0,0,4.707-1.1,3.748,3.748,0,0,0,1.551-3.271,4.054,4.054,0,0,0-1.5-3.5,7.814,7.814,0,0,0-4.6-1.1h-3.595Zm0,5.792V242.9h5.612a6.7,6.7,0,0,0,4.189-1.1,4.03,4.03,0,0,0,1.4-3.375,4.975,4.975,0,0,0-1.229-3.646,5.769,5.769,0,0,0-4.047-1.319h-5.922Z" transform="translate(-357.835 -211.973)" fill="#004289"/>
          <path id="Tracciato_105" data-name="Tracciato 105" d="M493.49,249.626h-8.715V211.973h8.715Z" transform="translate(-409.974 -211.973)" fill="#004289"/>
          <path id="Tracciato_106" data-name="Tracciato 106" d="M535.387,242.9H551.55v6.724h-24.9V211.973h8.741Z" transform="translate(-434.68 -211.973)" fill="#004289"/>
          <path id="Tracciato_107" data-name="Tracciato 107" d="M613.505,249.626H604.79V211.973h8.715Z" transform="translate(-480.789 -211.973)" fill="#004289"/>
          <path id="Tracciato_108" data-name="Tracciato 108" d="M667.754,218.7H657.8v30.929h-8.741V218.7h-9.775v-6.724h28.473Z" transform="translate(-501.141 -211.973)" fill="#004289"/>
          <path id="Tracciato_109" data-name="Tracciato 109" d="M727.723,242.308h-11.2l-2.172,7.319h-9.206l12.284-37.653h4.681V212l.026-.026h4.681l12.31,37.653h-9.206Zm-9.18-6.724h7.163l-3.517-11.689h-.155Z" transform="translate(-540.005 -211.973)" fill="#004289"/>
        </g>
        <g id="Raggruppa_4655" data-name="Raggruppa 4655">
          <path id="Tracciato_110" data-name="Tracciato 110" d="M274.378,211.973,269.8,226.079h10.486l4.587-14.106Z" transform="translate(-235.225 -211.973)" fill="#00a68b"/>
          <path id="Tracciato_111" data-name="Tracciato 111" d="M251.138,283.522h10.486l4.583-14.106H255.721Z" transform="translate(-224.216 -245.867)" fill="#00a68b"/>
          <path id="Tracciato_112" data-name="Tracciato 112" d="M214.112,211.973h-10.49l-4.583,14.106H188.531l-.066.193-3,9.248h10.507l-4.583,14.106h10.49l4.583-14.106h10.507l3-9.248.062-.193H209.529Z" transform="translate(-185.465 -211.973)" fill="#00a68b"/>
        </g>
      </g>
    </g>
    <g id="Raggruppa_4658" data-name="Raggruppa 4658" transform="translate(191.436 260.117)">
      <path id="Tracciato_113" data-name="Tracciato 113" d="M200.9,335.545v4.741h-.865V329.8h3.495a3.985,3.985,0,0,1,2.587.739,2.629,2.629,0,0,1,.9,2.158,2.481,2.481,0,0,1-.479,1.5,2.714,2.714,0,0,1-1.358.962,2.285,2.285,0,0,1,1.4.876,2.749,2.749,0,0,1,.429,1.582v.988a3.084,3.084,0,0,0,.116.879,1.366,1.366,0,0,0,.382.634v.173h-.879a1.436,1.436,0,0,1-.375-.728,4.307,4.307,0,0,1-.108-.973v-.958a1.943,1.943,0,0,0-.623-1.524,2.518,2.518,0,0,0-1.741-.558Zm0-.735h2.529a3.109,3.109,0,0,0,2.076-.573,1.948,1.948,0,0,0,.655-1.545,1.986,1.986,0,0,0-.652-1.6,2.981,2.981,0,0,0-1.978-.558H200.9Z" transform="translate(-200.031 -329.643)" fill="#00a68b"/>
      <path id="Tracciato_114" data-name="Tracciato 114" d="M241.529,335.67a4.767,4.767,0,0,1-1.113,3.286,3.8,3.8,0,0,1-2.987,1.254,3.718,3.718,0,0,1-2.944-1.254,4.805,4.805,0,0,1-1.1-3.286v-1.708a4.832,4.832,0,0,1,1.1-3.286,3.7,3.7,0,0,1,2.94-1.261,3.8,3.8,0,0,1,2.991,1.261,4.773,4.773,0,0,1,1.117,3.286Zm-.858-1.722a4.148,4.148,0,0,0-.861-2.738,2.935,2.935,0,0,0-2.389-1.038,2.83,2.83,0,0,0-2.335,1.038,4.232,4.232,0,0,0-.836,2.738v1.722a4.245,4.245,0,0,0,.839,2.753,2.842,2.842,0,0,0,2.339,1.038,2.927,2.927,0,0,0,2.389-1.034,4.2,4.2,0,0,0,.854-2.756Z" transform="translate(-219.712 -329.415)" fill="#00a68b"/>
      <path id="Tracciato_115" data-name="Tracciato 115" d="M269.606,340.276V329.784h3.063a4.166,4.166,0,0,1,2.551.688,2.427,2.427,0,0,1,.915,2.072,2.23,2.23,0,0,1-.443,1.376,2.365,2.365,0,0,1-1.193.836,2.45,2.45,0,0,1,1.625.865,2.6,2.6,0,0,1,.63,1.737,2.65,2.65,0,0,1-.912,2.162,3.7,3.7,0,0,1-2.439.757Zm.865-5.786h2.522a2.623,2.623,0,0,0,1.683-.523,1.793,1.793,0,0,0,.594-1.452,1.755,1.755,0,0,0-.663-1.5,3.179,3.179,0,0,0-1.939-.5h-2.2Zm0,.728v4.331H273.4a2.7,2.7,0,0,0,1.823-.573,2,2,0,0,0,.663-1.6,1.965,1.965,0,0,0-.652-1.531,2.652,2.652,0,0,0-1.748-.624h-3.019Z" transform="translate(-241.084 -329.633)" fill="#00a68b"/>
      <path id="Tracciato_116" data-name="Tracciato 116" d="M309.769,335.67a4.765,4.765,0,0,1-1.113,3.286,3.8,3.8,0,0,1-2.987,1.254,3.717,3.717,0,0,1-2.943-1.254,4.805,4.805,0,0,1-1.1-3.286v-1.708a4.832,4.832,0,0,1,1.1-3.286,3.7,3.7,0,0,1,2.94-1.261,3.8,3.8,0,0,1,2.991,1.261,4.773,4.773,0,0,1,1.117,3.286Zm-.858-1.722a4.15,4.15,0,0,0-.861-2.738,2.936,2.936,0,0,0-2.389-1.038,2.831,2.831,0,0,0-2.335,1.038,4.234,4.234,0,0,0-.836,2.738v1.722a4.246,4.246,0,0,0,.84,2.753,2.841,2.841,0,0,0,2.338,1.038,2.927,2.927,0,0,0,2.389-1.034,4.193,4.193,0,0,0,.854-2.756Z" transform="translate(-259.978 -329.415)" fill="#00a68b"/>
      <path id="Tracciato_117" data-name="Tracciato 117" d="M343.074,330.519H339.5v9.757h-.858v-9.757h-3.7v-.735h8.128Z" transform="translate(-279.638 -329.633)" fill="#00a68b"/>
      <path id="Tracciato_118" data-name="Tracciato 118" d="M371.2,340.276h-.865V329.784h.865Z" transform="translate(-300.523 -329.633)" fill="#00a68b"/>
      <path id="Tracciato_119" data-name="Tracciato 119" d="M397.11,336.78l.014.043a3.053,3.053,0,0,1-1.009,2.465,3.948,3.948,0,0,1-2.724.922,3.524,3.524,0,0,1-2.825-1.265,4.885,4.885,0,0,1-1.074-3.275v-1.708a4.9,4.9,0,0,1,1.074-3.275,3.515,3.515,0,0,1,2.825-1.272,4,4,0,0,1,2.735.9,3.047,3.047,0,0,1,1,2.479l-.014.044H396.3a2.549,2.549,0,0,0-.775-1.978,3.043,3.043,0,0,0-2.137-.71,2.661,2.661,0,0,0-2.208,1.067,4.306,4.306,0,0,0-.833,2.731v1.722a4.328,4.328,0,0,0,.833,2.749,2.666,2.666,0,0,0,2.208,1.063,3.093,3.093,0,0,0,2.137-.692,2.555,2.555,0,0,0,.775-2.01Z" transform="translate(-311.824 -329.415)" fill="#00a68b"/>
      <path id="Tracciato_120" data-name="Tracciato 120" d="M429.452,337.507a1.652,1.652,0,0,0-.641-1.333,6.549,6.549,0,0,0-2.176-.987,7.28,7.28,0,0,1-2.554-1.149,2.251,2.251,0,0,1-.876-1.87,2.413,2.413,0,0,1,.98-1.978,3.908,3.908,0,0,1,2.5-.775,3.7,3.7,0,0,1,2.573.876,2.774,2.774,0,0,1,.944,2.223l-.014.043h-.807a2.229,2.229,0,0,0-.753-1.722,2.777,2.777,0,0,0-1.942-.685,2.91,2.91,0,0,0-1.92.58,1.787,1.787,0,0,0-.7,1.423,1.624,1.624,0,0,0,.631,1.315,6.442,6.442,0,0,0,2.223.962,7.262,7.262,0,0,1,2.529,1.189,2.29,2.29,0,0,1,.872,1.873,2.328,2.328,0,0,1-1.02,1.971,4.236,4.236,0,0,1-2.569.746,4.664,4.664,0,0,1-2.7-.789,2.534,2.534,0,0,1-1.117-2.3l.014-.043h.8a2.012,2.012,0,0,0,.915,1.812,3.753,3.753,0,0,0,2.089.594,3.251,3.251,0,0,0,1.96-.551A1.688,1.688,0,0,0,429.452,337.507Z" transform="translate(-331.545 -329.415)" fill="#00a68b"/>
      <path id="Tracciato_121" data-name="Tracciato 121" d="M484.415,340.276h-.865v-4.828h-5.96v4.828h-.865V329.784h.865v4.929h5.96v-4.929h.865Z" transform="translate(-363.297 -329.633)" fill="#00a68b"/>
      <path id="Tracciato_122" data-name="Tracciato 122" d="M518.5,335.2h-4.706v4.353h5.441v.728H512.93V329.784H519.2v.735h-5.4v3.942H518.5Z" transform="translate(-384.659 -329.633)" fill="#00a68b"/>
      <path id="Tracciato_123" data-name="Tracciato 123" d="M547.639,337.35h-4.6l-1.059,2.926h-.894l3.855-10.492h.815l3.826,10.492h-.894Zm-4.331-.771h4.05l-1.989-5.563h-.043Z" transform="translate(-401.27 -329.633)" fill="#00a68b"/>
      <path id="Tracciato_124" data-name="Tracciato 124" d="M577.534,339.548h5.419v.728H576.67V329.784h.865Z" transform="translate(-422.269 -329.633)" fill="#00a68b"/>
      <path id="Tracciato_125" data-name="Tracciato 125" d="M608.274,330.519H604.7v9.757h-.858v-9.757h-3.7v-.735h8.128Z" transform="translate(-436.121 -329.633)" fill="#00a68b"/>
      <path id="Tracciato_126" data-name="Tracciato 126" d="M642.684,340.276h-.865v-4.828h-5.96v4.828h-.865V329.784h.865v4.929h5.96v-4.929h.865Z" transform="translate(-456.684 -329.633)" fill="#00a68b"/>
      <path id="Tracciato_127" data-name="Tracciato 127" d="M677.866,336.78l.014.043a3.052,3.052,0,0,1-1.009,2.465,3.947,3.947,0,0,1-2.724.922,3.524,3.524,0,0,1-2.825-1.265,4.885,4.885,0,0,1-1.074-3.275v-1.708a4.9,4.9,0,0,1,1.074-3.275,3.516,3.516,0,0,1,2.825-1.272,4,4,0,0,1,2.735.9,3.047,3.047,0,0,1,1,2.479l-.014.044h-.807a2.55,2.55,0,0,0-.774-1.978,3.044,3.044,0,0,0-2.137-.71,2.662,2.662,0,0,0-2.209,1.067,4.308,4.308,0,0,0-.832,2.731v1.722a4.33,4.33,0,0,0,.832,2.749,2.667,2.667,0,0,0,2.209,1.063,3.094,3.094,0,0,0,2.137-.692,2.556,2.556,0,0,0,.774-2.01Z" transform="translate(-477.486 -329.415)" fill="#00a68b"/>
      <path id="Tracciato_128" data-name="Tracciato 128" d="M709.142,337.35h-4.6l-1.059,2.926h-.894l3.855-10.492h.815l3.827,10.492h-.894Zm-4.331-.771h4.05l-1.989-5.563h-.043Z" transform="translate(-496.566 -329.633)" fill="#00a68b"/>
      <path id="Tracciato_129" data-name="Tracciato 129" d="M738.985,335.545v4.741h-.865V329.8h3.5a3.983,3.983,0,0,1,2.587.739,2.629,2.629,0,0,1,.9,2.158,2.478,2.478,0,0,1-.479,1.5,2.712,2.712,0,0,1-1.358.962,2.286,2.286,0,0,1,1.4.876,2.752,2.752,0,0,1,.429,1.582v.988a3.084,3.084,0,0,0,.115.879,1.363,1.363,0,0,0,.382.634v.173h-.879a1.442,1.442,0,0,1-.375-.728,4.309,4.309,0,0,1-.108-.973v-.958a1.942,1.942,0,0,0-.623-1.524,2.517,2.517,0,0,0-1.74-.558Zm0-.735h2.529a3.109,3.109,0,0,0,2.076-.573,1.949,1.949,0,0,0,.656-1.545,1.987,1.987,0,0,0-.652-1.6,2.982,2.982,0,0,0-1.978-.558h-2.631Z" transform="translate(-517.534 -329.643)" fill="#00a68b"/>
      <path id="Tracciato_130" data-name="Tracciato 130" d="M778.134,335.2h-4.705v4.353h5.44v.728h-6.305V329.784h6.269v.735h-5.4v3.942h4.705Z" transform="translate(-537.858 -329.633)" fill="#00a68b"/>
    </g>
  </g>
</svg>
