<svg id="Livello_1" data-name="Livello 1" xmlns="http://www.w3.org/2000/svg" xmlns:xlink="http://www.w3.org/1999/xlink" viewBox="0 0 287.57 202.62"><defs><style>.cls-1{fill:none;}.cls-2{fill:#39328a;}.cls-3{fill:#010000;}.cls-4{clip-path:url(#clip-path);}.cls-5{fill:#fff;}</style><clipPath id="clip-path" transform="translate(-256 -183)"><rect class="cls-1" width="800" height="600"/></clipPath></defs><rect class="cls-2" x="84.96" width="202.62" height="202.62"/><path class="cls-3" d="M326,309.51H262.13l31.92,31.93Zm-31.93,48L256,319.42v66.2h76.11v-66.2Z" transform="translate(-256 -183)"/><g class="cls-4"><path class="cls-5" d="M376,332.59l6.34,28.55h-6.5l-3.1-15.93-5.8,13.7H364l-5.28-13.16-3.15,15.39h-6.13l6.34-28.55h2.48l7.59,16.87,7.52-16.87Zm9.09,28.55h5.76V340.82l-5.76.33Zm0-22.48h5.76v-5.33h-5.76Zm22.79,1.55a8.69,8.69,0,0,0-4.37,1.14l-2.36,1.35v-1.95l-5.69.4v20h5.69v-13.5a6.24,6.24,0,0,1,4.22-1.84,3.39,3.39,0,0,1,2.23.71,2.49,2.49,0,0,1,.94,2.08v12.55h5.69V346.86a6.8,6.8,0,0,0-1.69-4.82,6,6,0,0,0-4.66-1.83m10.89-1.55h5.76v-5.33h-5.76Zm0,22.48h5.76V340.82l-5.76.33Zm16.49-21.84c0-1.58.75-2.36,2.24-2.36a9.69,9.69,0,0,1,3.05.37V333a10.2,10.2,0,0,0-4.51-.78,6.33,6.33,0,0,0-4.61,1.81,6.07,6.07,0,0,0-1.86,4.55v2.56h-1.88v3.68h1.88v16.31h5.69V344.83h3.49v-3.68h-3.49Zm26.5,18.77-4.48,3.66a3.87,3.87,0,0,1-2.79-2.71L451,361a3.08,3.08,0,0,1-1.52.35,8.52,8.52,0,0,1-7-3.09,12.57,12.57,0,0,1,.23-14.92,8.87,8.87,0,0,1,7.13-3.22,8.6,8.6,0,0,1,2.72.5A5.47,5.47,0,0,1,455,342l3.23-1.17,1.14.33v12.76q0,3.15,2.41,4.16m-7.86-11.51a4.5,4.5,0,0,0-3.67-1.67c-2.91,0-4.36,2-4.36,5.89a6.52,6.52,0,0,0,1,3.81,3.8,3.8,0,0,0,3.39,1.73,5.46,5.46,0,0,0,3.63-1Zm28.22-3.16a11.72,11.72,0,0,1,2.19,7.33,11,11,0,0,1-2.66,7.49,9.12,9.12,0,0,1-7.19,3.18,8.73,8.73,0,0,1-5.41-1.43l-3.22,1.43-1.37-.69V332.59h5.61v9.49l2.14-1a7.46,7.46,0,0,1,3.16-.82,8.08,8.08,0,0,1,6.75,3.16m-3.5,7.68a7.08,7.08,0,0,0-1.21-4.11,4.22,4.22,0,0,0-3.61-2c-1.94,0-3.18.48-3.73,1.44v9.46a4.69,4.69,0,0,0,3.63,1.2c1.87,0,3.18-.55,3.95-1.67a7.64,7.64,0,0,0,1-4.33m28.42.91H492.21q.87,4.61,5.47,4.61a15,15,0,0,0,3.56-.47,9.88,9.88,0,0,0,3.33-1.33v5a9.34,9.34,0,0,1-3.29,1.24,16.24,16.24,0,0,1-3.55.45,11.59,11.59,0,0,1-8.12-2.74,10.14,10.14,0,0,1-3.12-7.9,10.83,10.83,0,0,1,2.94-7.82,10.18,10.18,0,0,1,7.69-3.07,8.86,8.86,0,0,1,7.6,3.63,13.86,13.86,0,0,1,2.34,8.36m-5.24-2.69q-.85-4.5-4.93-4.5t-4.73,4.5Zm19.61-8.89a7.35,7.35,0,0,0-3.92,1.21l-1.8,1.11v-2l-5.69.4v20h5.69V347.66a6.1,6.1,0,0,1,4.36-1.58,6,6,0,0,1,3.81,1.08V340.8a6,6,0,0,0-2.45-.39" transform="translate(-256 -183)"/></g></svg>