<svg id="Livello_1" data-name="Livello 1" xmlns="http://www.w3.org/2000/svg" viewBox="0 0 511.91 77.9"><defs><style>.cls-1{fill:#e30613;}.cls-2,.cls-4,.cls-6,.cls-8{fill:none;stroke-miterlimit:3.86;}.cls-2{stroke:#e30613;}.cls-3{fill:#b2b2b2;}.cls-4{stroke:#b2b2b2;}.cls-5{fill:#dadada;}.cls-6{stroke:#dadada;}.cls-7{fill:#878787;}.cls-8{stroke:#878787;}</style></defs><polygon class="cls-1" points="190.72 31.89 195.92 23.26 211.03 23.26 205.87 31.89 190.72 31.89 190.72 31.89"/><polygon class="cls-2" points="190.72 31.89 195.92 23.26 211.03 23.26 205.87 31.89 190.72 31.89 190.72 31.89"/><polygon class="cls-1" points="83.76 56 115.67 2.21 133.75 2.21 102.08 56 83.76 56 83.76 56"/><path class="cls-1" d="M181,426.15H156.38l10.3-18.25h9.7a2.7,2.7,0,0,0,0-5.39h-6.47l11.18-17.63h13.08c-.21.37,12.78-1.09,10.14,9.71-.4,1.65-.44,3.28-1.21,4.66l-14.53,23.5a9.61,9.61,0,0,1-7.55,3.4Z" transform="translate(-41 -382.89)"/><polygon class="cls-1" points="175.86 54.96 187.04 36.37 218.1 36.37 207.01 54.96 175.86 54.96 175.86 54.96"/><polygon class="cls-2" points="175.86 54.96 187.04 36.37 218.1 36.37 207.01 54.96 175.86 54.96 175.86 54.96"/><polygon class="cls-1" points="197.76 18.91 207.18 2.58 238.09 2.58 227.71 18.91 197.76 18.91 197.76 18.91"/><polygon class="cls-2" points="197.76 18.91 207.18 2.58 238.09 2.58 227.71 18.91 197.76 18.91 197.76 18.91"/><path class="cls-1" d="M315.64,425.11H291.86l11.35-18.25h7.61a2.7,2.7,0,0,0,0-5.39h-4.39l9-16h13.27c5.36,0,9.24,2.81,9.24,8.11a9.44,9.44,0,0,1-1.22,4.66l-14.53,23.5c-1.9,2.22-3.45,3.4-6.51,3.4Z" transform="translate(-41 -382.89)"/><path class="cls-2" d="M315.64,425.11H291.86l11.35-18.25h7.61a2.7,2.7,0,0,0,0-5.39h-4.39l9-16h13.27c5.36,0,9.24,2.81,9.24,8.11a9.44,9.44,0,0,1-1.22,4.66l-14.53,23.5c-1.9,2.22-3.45,3.4-6.51,3.4Z" transform="translate(-41 -382.89)"/><polygon class="cls-1" points="249.82 45.74 270.08 77.86 287.61 77.86 267.59 45.74 249.82 45.74 249.82 45.74"/><path class="cls-1" d="M375.06,406.28l7.75,3.25c4.72,1.39,8.28,4.58,8.28,8.94,0,2.06-5.17,10.46-5.17,10.46-2.37,4.68-6.3,7.88-11.93,7.88H356.55l10.89-16.91h6l-5-3.16,6.61-10.46Z" transform="translate(-41 -382.89)"/><path class="cls-2" d="M375.06,406.28l7.75,3.25c4.72,1.39,8.28,4.58,8.28,8.94,0,2.06-5.17,10.46-5.17,10.46-2.37,4.68-6.3,7.88-11.93,7.88H356.55l10.89-16.91h6l-5-3.16,6.61-10.46Z" transform="translate(-41 -382.89)"/><path class="cls-1" d="M333.08,427.76c.54-1,5.23-10.23,5.23-10.23h15.75c-1.05,2.48.18,2.2,1.91,2.2h4.75l-11,18.12h-8.84c-5.12,0-8.23-3.67-8.23-8.79a4.71,4.71,0,0,1,.43-1.3Z" transform="translate(-41 -382.89)"/><path class="cls-2" d="M333.08,427.76c.54-1,5.23-10.23,5.23-10.23h15.75c-1.05,2.48.18,2.2,1.91,2.2h4.75l-11,18.12h-8.84c-5.12,0-8.23-3.67-8.23-8.79a4.71,4.71,0,0,1,.43-1.3Z" transform="translate(-41 -382.89)"/><path class="cls-1" d="M362.67,414.27,353.88,411c-4.72-1.22-7.23-4.58-7.23-8.93,0-2.07,5.17-10.46,5.17-10.46,2.37-4.69,6.3-6.84,11.93-6.84h17.43L370.3,401.69h-6l5,2.11-6.61,10.47Z" transform="translate(-41 -382.89)"/><path class="cls-2" d="M362.67,414.27,353.88,411c-4.72-1.22-7.23-4.58-7.23-8.93,0-2.07,5.17-10.46,5.17-10.46,2.37-4.69,6.3-6.84,11.93-6.84h17.43L370.3,401.69h-6l5,2.11-6.61,10.47Z" transform="translate(-41 -382.89)"/><path class="cls-1" d="M436.45,436.81c-4.46,0-8.09-4.06-8.09-9.06a10,10,0,0,1,1.73-5.83l19.74-32.57c1.5-3.3,4.76-5,8.95-5h33.73l-11.42,17.5H462.88a5.16,5.16,0,0,0-3.89,2.44L453.34,416c-.8,1.35-.36,2.44,1,2.44h18.11l-11.61,18.38Z" transform="translate(-41 -382.89)"/><path class="cls-2" d="M436.45,436.81c-4.46,0-8.09-4.06-8.09-9.06a10,10,0,0,1,1.73-5.83l19.74-32.57c1.5-3.3,4.76-5,8.95-5h33.73l-11.42,17.5H462.88a5.16,5.16,0,0,0-3.89,2.44L453.34,416c-.8,1.35-.36,2.44,1,2.44h18.11l-11.61,18.38Z" transform="translate(-41 -382.89)"/><path class="cls-1" d="M486.76,437.58c-4.42,0-8-4-8-9a9.89,9.89,0,0,1,1.71-5.76L500,390.6a9.43,9.43,0,0,1,8.86-5.45h13.2l5.43,0-10.08,16.29-4.38.09c-1,.41-1.94,2.24-2.47,3.14L503.24,417c-.79,1.34,1,2.92,2.34,2.92h1.19l-10.3,17.69Z" transform="translate(-41 -382.89)"/><path class="cls-2" d="M486.76,437.58c-4.42,0-8-4-8-9a9.89,9.89,0,0,1,1.71-5.76L500,390.6a9.43,9.43,0,0,1,8.86-5.45h13.2l5.43,0-10.08,16.29-4.38.09c-1,.41-1.94,2.24-2.47,3.14L503.24,417c-.79,1.34,1,2.92,2.34,2.92h1.19l-10.3,17.69Z" transform="translate(-41 -382.89)"/><path class="cls-1" d="M405,393.82c-.55,1-6.28,11.27-6.28,11.27H383.42s1.07-3.24.78-3.24h-6.89l10-17.08h8.84c5.12,0,9.28,2.63,9.28,7.75a4.6,4.6,0,0,1-.43,1.29Z" transform="translate(-41 -382.89)"/><path class="cls-2" d="M405,393.82c-.55,1-6.28,11.27-6.28,11.27H383.42s1.07-3.24.78-3.24h-6.89l10-17.08h8.84c5.12,0,9.28,2.63,9.28,7.75a4.6,4.6,0,0,1-.43,1.29Z" transform="translate(-41 -382.89)"/><polygon class="cls-1" points="149.66 56 181.57 2.21 199.65 2.21 167.98 56 149.66 56 149.66 56"/><polygon class="cls-1" points="216.93 56 248.83 2.21 266.92 2.21 235.25 56 216.93 56 216.93 56"/><polygon class="cls-1" points="349.46 56 381.36 2.21 399.45 2.21 367.78 56 349.46 56 349.46 56"/><path class="cls-1" d="M544.4,385.14c4.42,0,8,4,8,9a9.93,9.93,0,0,1-1.71,5.77l-19.54,32.25a9.43,9.43,0,0,1-8.86,5.45H509.1l-5.43,0,10.08-16.3,4.38-.08c1-.42,1.94-2.25,2.47-3.15l7.32-12.29c.79-1.33.61-3.69-.72-3.69l-2.81-.27,10.3-16.64Z" transform="translate(-41 -382.89)"/><path class="cls-2" d="M544.4,385.14c4.42,0,8,4,8,9a9.93,9.93,0,0,1-1.71,5.77l-19.54,32.25a9.43,9.43,0,0,1-8.86,5.45H509.1l-5.43,0,10.08-16.3,4.38-.08c1-.42,1.94-2.25,2.47-3.15l7.32-12.29c.79-1.33.61-3.69-.72-3.69l-2.81-.27,10.3-16.64Z" transform="translate(-41 -382.89)"/><polygon class="cls-3" points="6.17 1.83 0.58 11.38 36.93 76.89 65.37 28.54 53.75 28.54 38.14 54.56 6.17 1.83 6.17 1.83"/><polygon class="cls-4" points="6.17 1.83 0.58 11.38 36.93 76.89 65.37 28.54 53.75 28.54 38.14 54.56 6.17 1.83 6.17 1.83"/><polygon class="cls-5" points="89.55 11.16 83.66 0.5 9.17 0.5 37.97 48.83 44.38 38.25 28.25 11.16 89.55 11.16 89.55 11.16"/><polygon class="cls-6" points="89.55 11.16 83.66 0.5 9.17 0.5 37.97 48.83 44.38 38.25 28.25 11.16 89.55 11.16 89.55 11.16"/><polygon class="cls-7" points="40.48 25.77 33.46 14.13 89.77 14.13 53.11 77.11 40.22 77.11 70.92 25.77 40.48 25.77 40.48 25.77"/><polygon class="cls-8" points="40.48 25.77 33.46 14.13 89.77 14.13 53.11 77.11 40.22 77.11 70.92 25.77 40.48 25.77 40.48 25.77"/></svg>