<svg id="Livello_1" data-name="Livello 1" xmlns="http://www.w3.org/2000/svg" viewBox="0 0 528.01 75.64"><defs><style>.cls-1{fill:#e30613;}.cls-2{fill:#878787;}.cls-3{fill:#b2b2b2;}.cls-4{fill:#dadada;}</style></defs><path class="cls-1" d="M284.12,293.13h39c7,0,10.12,2.25,10.12,8.39v9.61c0,6-3.17,8.39-10.12,8.39H294.55v16.87H284.12Zm10.43,7.46v11.46h24c3.17,0,4.8-.61,4.8-3.48v-4.5c0-2.86-1.63-3.48-4.8-3.48Z" transform="translate(-136.71 -278.13)"/><path class="cls-1" d="M343.24,293.13h46.43v7.67H353.88v9.41h20.86v7.47H353.88v10.63h36.31v8.08H343.24Z" transform="translate(-136.71 -278.13)"/><path class="cls-1" d="M400.31,293.13h39c7,0,10.13,2.35,10.13,8.39v10.22c0,5.94-3.17,8.29-10.13,8.29h-5.93l20.56,16.36H438.77L420.67,320h-9.92v16.36H400.31Zm10.44,7.46v12h24c3.17,0,4.81-.61,4.81-3.48v-5c0-2.86-1.64-3.48-4.81-3.48Z" transform="translate(-136.71 -278.13)"/><path class="cls-1" d="M471.91,300.9V310H500c8.59,0,11.25,2.05,11.25,10.23v5.94c0,8.08-2.66,10.22-11.25,10.22H471.91c-8.59,0-11.35-2.14-11.35-10.22v-1.23L470,323.2v5.11h31.81v-9.92h-28c-8.49,0-11.36-2-11.36-10.23v-4.8c0-8.19,2.87-10.23,11.36-10.23h25.67c8,0,11.35,1.84,11.35,9.41v1l-9.1,1.94v-4.6Z" transform="translate(-136.71 -278.13)"/><path class="cls-1" d="M524.39,293.13h10.53v43.26H524.39Z" transform="translate(-136.71 -278.13)"/><path class="cls-1" d="M558.55,301.11v27H587V318.9l10.64,2.15v5.12c0,8.08-2.76,10.22-11.35,10.22h-27c-8.69,0-11.25-2.25-11.25-10.22V303.36c0-8.08,2.66-10.23,11.25-10.23h27c8.59,0,11.35,2,11.35,10.23v4.19L587,309.08v-8Z" transform="translate(-136.71 -278.13)"/><path class="cls-1" d="M620,293.13h33.45c8.49,0,11.25,1.94,11.25,10.23v22.81c0,8.18-2.76,10.22-11.25,10.22H620c-8.59,0-11.25-2-11.25-10.22V303.36C608.77,295.07,611.53,293.13,620,293.13Zm34.16,35v-27H619.31v27Z" transform="translate(-136.71 -278.13)"/><path class="cls-2" d="M550.22,344v7.54h-2.28V340.37h2.28l7.29,7.25,6.7-7.25h2.56v11.18h-2.56V344a7,7,0,0,1,.17-1.55,5.28,5.28,0,0,1-1,1.55l-5.63,5.78h-.73l-5.84-5.72a5,5,0,0,1-1.07-1.61C550.19,343.2,550.22,343.72,550.22,344Z" transform="translate(-136.71 -278.13)"/><path class="cls-2" d="M579.65,340.37h2.53l8.67,11.18h-3l-1.9-2.61H575.82L574,351.55h-2.77Zm5.12,7L580.86,342,577,347.33Z" transform="translate(-136.71 -278.13)"/><path class="cls-2" d="M595.24,340.37H607c2.14,0,3.07.61,3.07,2.17V345c0,1.53-.93,2.14-3.07,2.14h-1.94l6.46,4.37h-3.69L602,347.18h-4v4.37h-2.76ZM598,342v3.61h7.81c1.21,0,1.55-.24,1.55-1.13v-1.35c0-.92-.52-1.13-1.55-1.13Z" transform="translate(-136.71 -278.13)"/><path class="cls-2" d="M616.35,351.55V340.4h2.76v11.15Z" transform="translate(-136.71 -278.13)"/><path class="cls-2" d="M628.37,344.62v6.93h-2.56V340.37h2.11l10.74,7.31a8.48,8.48,0,0,1,1.77,1.53,8.41,8.41,0,0,1-.25-2.09v-6.75h2.56v11.18h-1.9l-11-7.41a7.44,7.44,0,0,1-1.73-1.52A9.64,9.64,0,0,1,628.37,344.62Z" transform="translate(-136.71 -278.13)"/><path class="cls-2" d="M649.51,340.37h14.75V342h-12v2.87h7.22v1.66h-7.22v3.35H664.4v1.63H649.51Z" transform="translate(-136.71 -278.13)"/><path class="cls-3" d="M222.29,336.17a47.94,47.94,0,0,0,15.36,10.34c21.33,13.07,51,8.12,82.57-11.78q-58.41,19.83-87.5,7.41A46.71,46.71,0,0,1,222.29,336.17Z" transform="translate(-136.71 -278.13)"/><path class="cls-4" d="M163.69,325.38c.72.4,1.52.72,2.39,1.12a103.71,103.71,0,0,0,31.77,7.64q25.2,2.14,53.34-7.64c3.1-1,6.13-2.15,9.15-3-.07,0-.15-.08-.23-.08q-13.38-11.1-44.83-.08a103.37,103.37,0,0,1-16.64,4.22A73.46,73.46,0,0,1,163.69,325.38Z" transform="translate(-136.71 -278.13)"/><path class="cls-3" d="M152.47,315.79A49.23,49.23,0,0,0,169,324.14a65.43,65.43,0,0,0,29.77.64,119.26,119.26,0,0,0,32.25-11.94,203.73,203.73,0,0,0,18.31-11c-8.28,4.06-16.09,7.49-23.49,10.35a171.41,171.41,0,0,1-26.43,8c-13.93,2.95-26,2.95-35.91.16A42.65,42.65,0,0,1,152.47,315.79Z" transform="translate(-136.71 -278.13)"/><path class="cls-2" d="M153.27,312.32c14.25,5.89,29.69,7.4,46.49,4.3a113.31,113.31,0,0,0,21.73-6.29c2.07-.8,4.22-1.59,6.22-2.47,20.93-9.23,30.17-25.06,53.89-17.12q-24.36-25.08-65.52-.31c-27.46,16.32-54,20.46-79.37,12.17A67.05,67.05,0,0,0,153.27,312.32Z" transform="translate(-136.71 -278.13)"/></svg>