<svg id="Livello_1" data-name="Livello 1" xmlns="http://www.w3.org/2000/svg" xmlns:xlink="http://www.w3.org/1999/xlink" viewBox="0 0 151.03 20.08"><defs><style>.cls-1,.cls-4{fill:none;}.cls-2,.cls-5{fill:#0056a4;}.cls-3{clip-path:url(#clip-path);}.cls-4{stroke:#fff;stroke-miterlimit:57;stroke-width:0.58px;}.cls-5{fill-rule:evenodd;}.cls-6{fill:#ffe500;}</style><clipPath id="clip-path" transform="translate(-148.32 -271.66)"><rect class="cls-1" x="148.31" y="271.66" width="151.03" height="22.54"/></clipPath></defs><rect class="cls-2" x="0.29" y="0.42" width="32.09" height="19.37"/><g class="cls-3"><rect class="cls-4" x="0.29" y="0.42" width="32.09" height="19.37"/><line class="cls-4" x1="16.42" y1="0.52" x2="16.42" y2="19.79"/><line class="cls-4" x1="0.29" y1="10.15" x2="32.56" y2="10.15"/><path class="cls-4" d="M151.38,281.81c0-3.76,6-6.8,13.36-6.8s13.36,3,13.36,6.8-6,6.8-13.36,6.8S151.38,285.57,151.38,281.81Z" transform="translate(-148.32 -271.66)"/></g><polygon class="cls-5" points="132.69 0.64 136.9 0.65 136.9 10.99 143.05 6.92 148.66 6.92 141.21 12.24 151.03 19.71 145.07 19.71 136.82 13.94 136.82 19.71 132.69 19.71 132.69 0.64"/><path class="cls-5" d="M185.78,278.39h4.46v3.14h9.26a2.11,2.11,0,0,0,1.54-2.28,2.46,2.46,0,0,0-1.6-2.46H185.85v-4.18h13.84a6.37,6.37,0,0,1,5.9,6.64c0,6.25-6.35,6.35-6.35,6.35h-8.9l0,5.66h-4.53Z" transform="translate(-148.32 -271.66)"/><rect class="cls-2" x="59.98" y="0.96" width="4.26" height="18.65"/><path class="cls-5" d="M251.13,278.78h-14a3.8,3.8,0,0,0-3.14,4,3.94,3.94,0,0,0,3.06,4.08H247s1.28.38.19,1H234.63v3.49h14.23s2.66-.09,2.66-4.07a3.73,3.73,0,0,0-3.88-3.88h-9.87s-1.16-.45,0-1h13.34Z" transform="translate(-148.32 -271.66)"/><path class="cls-5" d="M257.16,274.18h4.27v4.59h9.29v3.59h-9.2v4.2a1,1,0,0,0,1,1h7.88v3.78H259.89s-2.73-.26-2.73-2.73v-6.28h-3.62v-3.59h3.62Z" transform="translate(-148.32 -271.66)"/><path class="cls-5" d="M273.38,274.22a2.57,2.57,0,1,1,2.57,2.57A2.57,2.57,0,0,1,273.38,274.22Z" transform="translate(-148.32 -271.66)"/><rect class="cls-2" x="125.26" y="7.11" width="4.36" height="12.6"/><path class="cls-5" d="M215.67,278.68h13.55s2.57.57,2.57,2.37v10.21H218.68s-3,.2-3-4.06,3.3-4,3.3-4h8.36s.28-1-.38-1l-11.28.05Zm6,8.14h3.14c2.46,0,2.42.18,2.42.57s-.51.39-2.42.39h-3.14c-1.62,0-2.42,0-2.42-.39S219.19,286.82,221.69,286.82Z" transform="translate(-148.32 -271.66)"/><g class="cls-3"><line class="cls-4" x1="16.42" y1="0.52" x2="16.42" y2="19.79"/><line class="cls-4" x1="0.29" y1="10.15" x2="32.56" y2="10.15"/><path class="cls-4" d="M151.38,281.81c0-3.76,6-6.8,13.36-6.8s13.36,3,13.36,6.8-6,6.8-13.36,6.8S151.38,285.57,151.38,281.81Z" transform="translate(-148.32 -271.66)"/></g><path class="cls-6" d="M157.6,281.81a7.2,7.2,0,1,1,7.2,7.1A7.14,7.14,0,0,1,157.6,281.81Z" transform="translate(-148.32 -271.66)"/><path class="cls-5" d="M160.92,279.77h1.9v1.33h4a.89.89,0,0,0,.65-1,1.06,1.06,0,0,0-.68-1.05H161v-1.85l5.9,0a2.76,2.76,0,0,1,2.51,2.86,2.68,2.68,0,0,1-2.7,2.71h-3.8l0,2.5h-1.9Z" transform="translate(-148.32 -271.66)"/><polygon class="cls-5" points="132.69 0.64 136.9 0.65 136.9 10.99 143.05 6.92 148.66 6.92 141.21 12.24 151.03 19.71 145.07 19.71 136.82 13.94 136.82 19.71 132.69 19.71 132.69 0.64"/><path class="cls-5" d="M185.78,278.39h4.46v3.14h9.26a2.11,2.11,0,0,0,1.54-2.28,2.46,2.46,0,0,0-1.6-2.46H185.85v-4.18h13.84a6.37,6.37,0,0,1,5.9,6.64c0,6.25-6.35,6.35-6.35,6.35h-8.9l0,5.66h-4.53Z" transform="translate(-148.32 -271.66)"/><rect class="cls-2" x="59.98" y="0.96" width="4.26" height="18.65"/><path class="cls-5" d="M251.13,278.78h-14a3.8,3.8,0,0,0-3.14,4,3.94,3.94,0,0,0,3.06,4.08H247s1.28.38.19,1H234.63v3.49h14.23s2.66-.09,2.66-4.07a3.73,3.73,0,0,0-3.88-3.88h-9.87s-1.16-.45,0-1h13.34Z" transform="translate(-148.32 -271.66)"/><path class="cls-5" d="M257.16,274.18h4.27v4.59h9.29v3.59h-9.2v4.2a1,1,0,0,0,1,1h7.88v3.78H259.89s-2.73-.26-2.73-2.73v-6.28h-3.62v-3.59h3.62Z" transform="translate(-148.32 -271.66)"/><path class="cls-5" d="M273.38,274.22a2.57,2.57,0,1,1,2.57,2.57A2.57,2.57,0,0,1,273.38,274.22Z" transform="translate(-148.32 -271.66)"/><rect class="cls-2" x="125.26" y="7.11" width="4.36" height="12.6"/></svg>