<svg id="Livello_1" data-name="Livello 1" xmlns="http://www.w3.org/2000/svg" viewBox="0 0 316.28 41.53"><defs><style>.cls-1{fill:#04a64b;}</style></defs><path class="cls-1" d="M255.8,60h4.74L262,52.61c.14-.7.26-1.41.38-2.1h.16a15.75,15.75,0,0,0,0,2.17l.88,7.36h2.87l2.88-7.8c.21-.56.37-1.16.53-1.73h.09L269.35,60h4.75L274,42.64h-5l-2.34,6.83c-.25.74-.44,1.54-.62,2.3h-.12l-.77-9.13h-5.05L255.8,60" transform="translate(-42.1 -42.36)"/><path class="cls-1" d="M281.19,53.74l1.53-5.31h.18c0,.74,0,1.5.06,2.24l.2,3.07h-2m-1.37,4.13h3.71l.19,2.17h5.19l-2.74-17.4h-5.42L274,60h5.2Z" transform="translate(-42.1 -42.36)"/><path class="cls-1" d="M301.24,43.08a7.53,7.53,0,0,0-3.21-.72c-4,0-7.54,4.06-8.15,9.14s2,8.81,5.81,8.81a9.29,9.29,0,0,0,3.57-.69l.92-6.51a4.11,4.11,0,0,1-3,1.62c-1.47,0-2.56-1.48-2.34-3.4s1.61-3.39,3.08-3.39a3.48,3.48,0,0,1,2.67,1.76l.65-6.62" transform="translate(-42.1 -42.36)"/><path class="cls-1" d="M312.37,43.08a7.5,7.5,0,0,0-3.21-.72c-4,0-7.54,4.06-8.15,9.14s2,8.81,5.81,8.81a9.29,9.29,0,0,0,3.57-.69l.93-6.51a4.13,4.13,0,0,1-3,1.62c-1.47,0-2.56-1.48-2.33-3.4s1.6-3.39,3.07-3.39a3.48,3.48,0,0,1,2.67,1.76l.65-6.62" transform="translate(-42.1 -42.36)"/><polyline class="cls-1" points="269.52 17.68 274.24 17.68 274.97 11.63 277.97 11.63 277.25 17.68 281.98 17.68 284.06 0.28 279.33 0.28 278.63 6.14 275.62 6.14 276.32 0.28 271.59 0.28 269.52 17.68"/><polyline class="cls-1" points="283.63 17.68 288.54 17.68 290.62 0.28 285.7 0.28 283.63 17.68"/><path class="cls-1" d="M332.19,60h4.69l.68-5.66a25,25,0,0,0,.11-3.48h.14L341,60h4.69l2.07-17.4h-4.69l-.62,5.21a31.33,31.33,0,0,0-.11,4.43h-.15L339,42.64h-4.7L332.19,60" transform="translate(-42.1 -42.36)"/><polyline class="cls-1" points="305.12 17.68 314.35 17.68 314.91 12.92 310.63 12.92 310.84 11.22 314.62 11.22 315.15 6.69 311.38 6.69 311.57 5.03 315.71 5.03 316.28 0.28 307.2 0.28 305.12 17.68"/><polyline class="cls-1" points="210.95 40.98 215.86 40.98 217.94 23.58 213.03 23.58 210.95 40.98"/><path class="cls-1" d="M260.09,83.34h4.74l1.46-7.44c.14-.69.26-1.4.38-2.09h.16a15.58,15.58,0,0,0,0,2.16l.88,7.37h2.87l2.88-7.8c.21-.56.37-1.16.53-1.73h.09l-.48,9.53h4.75l-.14-17.4h-5l-2.34,6.83c-.25.74-.44,1.54-.62,2.3h-.12l-.77-9.13h-5l-4.26,17.4" transform="translate(-42.1 -42.36)"/><path class="cls-1" d="M286.78,70.69h.46c.81,0,1.81.07,1.64,1.43s-1.12,1.59-2,1.59h-.48l.36-3m-6.24,12.65h4.73l.63-5.24h2.5c2.74,0,4.72-2.22,5.15-5.77.52-4.32-1.56-6.39-4.72-6.39h-6.21Z" transform="translate(-42.1 -42.36)"/><polyline class="cls-1" points="251.97 40.98 256.87 40.98 258.95 23.58 254.05 23.58 251.97 40.98"/><path class="cls-1" d="M307.66,77l1.53-5.31h.18c0,.74,0,1.5.05,2.24l.21,3.07h-2m-1.37,4.13H310l.19,2.17h5.2l-2.74-17.4h-5.43l-6.77,17.4h5.19Z" transform="translate(-42.1 -42.36)"/><path class="cls-1" d="M316.8,83.34h4.69l.67-5.66a26.68,26.68,0,0,0,.12-3.48h.14l3.22,9.14h4.69l2.08-17.4h-4.69l-.62,5.21a32.91,32.91,0,0,0-.12,4.43h-.14l-3.26-9.64h-4.71l-2.07,17.4" transform="translate(-42.1 -42.36)"/><polyline class="cls-1" points="291.33 29.23 294.06 29.07 292.64 40.98 297.54 40.98 298.96 29.07 301.65 29.23 302.32 23.58 292.01 23.58 291.33 29.23"/><polyline class="cls-1" points="302.01 40.98 306.91 40.98 308.99 23.58 304.08 23.58 302.01 40.98"/><path class="cls-1" d="M216.54,83.07l5.86-40s28.7-4.21,24.66,21.45c-2.48,15.73-13.27,18.61-21.71,18.61l-8.81,0m11.52-10.24c5,.08,8-2.72,8.88-8.89.95-6.46-.59-10.88-6-11Z" transform="translate(-42.1 -42.36)"/><polyline class="cls-1" points="103.01 0.73 102.36 4.76 99.1 6.82 101.93 7.58 101.17 11.82 97.36 14.32 100.62 15.29 100.08 18.88 95.62 21.82 99.43 23.01 98.99 25.84 93.66 29.31 98.23 30.61 97.9 33.11 91.92 37.02 96.92 38.43 96.71 39.95 96.6 39.95 96.6 40.06 96.49 40.06 96.38 40.17 95.19 40.93 103.45 40.93 109.87 0.73 103.01 0.73"/><path class="cls-1" d="M59,78.73a14.35,14.35,0,0,1-3.15,1.85,7.83,7.83,0,0,1-3.26-.65,13,13,0,0,1,3-1.85,10.34,10.34,0,0,1,3.37.65" transform="translate(-42.1 -42.36)"/><path class="cls-1" d="M60.62,71.14A14.14,14.14,0,0,1,57.46,73a8,8,0,0,1-3.26-.66,13.21,13.21,0,0,1,3-1.84,10.33,10.33,0,0,1,3.37.66" transform="translate(-42.1 -42.36)"/><path class="cls-1" d="M62.26,63.5a14.26,14.26,0,0,1-3.15,1.84,7.89,7.89,0,0,1-3.27-.65,13.06,13.06,0,0,1,3-1.85,10.26,10.26,0,0,1,3.37.66" transform="translate(-42.1 -42.36)"/><path class="cls-1" d="M64,55.82a13.82,13.82,0,0,1-3.16,1.83A7.71,7.71,0,0,1,57.57,57a13.41,13.41,0,0,1,3-1.85,10.33,10.33,0,0,1,3.37.66" transform="translate(-42.1 -42.36)"/><path class="cls-1" d="M65.62,48.2a14.42,14.42,0,0,1-3.16,1.86,8,8,0,0,1-3.26-.65,13.06,13.06,0,0,1,3-1.85,10.2,10.2,0,0,1,3.37.64" transform="translate(-42.1 -42.36)"/><path class="cls-1" d="M55.4,44.29A11,11,0,0,1,53,45.68a5.91,5.91,0,0,1-2.45-.49,9.57,9.57,0,0,1,2.29-1.38,7.67,7.67,0,0,1,2.53.48" transform="translate(-42.1 -42.36)"/><path class="cls-1" d="M53.66,51.87a10.88,10.88,0,0,1-2.36,1.39,6,6,0,0,1-2.44-.49,9.77,9.77,0,0,1,2.28-1.39,7.79,7.79,0,0,1,2.52.49" transform="translate(-42.1 -42.36)"/><path class="cls-1" d="M52,59.51a10.54,10.54,0,0,1-2.36,1.38,6.08,6.08,0,0,1-2.45-.49A9.91,9.91,0,0,1,49.5,59a7.52,7.52,0,0,1,2.52.49" transform="translate(-42.1 -42.36)"/><path class="cls-1" d="M50.28,67a10.37,10.37,0,0,1-2.37,1.39,5.85,5.85,0,0,1-2.44-.49,9.67,9.67,0,0,1,2.28-1.38,7.61,7.61,0,0,1,2.53.48" transform="translate(-42.1 -42.36)"/><path class="cls-1" d="M48.65,74.61A10.94,10.94,0,0,1,46.29,76a5.87,5.87,0,0,1-2.45-.49,10,10,0,0,1,2.28-1.38,7.81,7.81,0,0,1,2.53.49" transform="translate(-42.1 -42.36)"/><path class="cls-1" d="M46.91,82.2a10.48,10.48,0,0,1-2.36,1.39,6.08,6.08,0,0,1-2.45-.48,9.64,9.64,0,0,1,2.28-1.39,7.61,7.61,0,0,1,2.53.48" transform="translate(-42.1 -42.36)"/><path class="cls-1" d="M70.62,81.12s-2.87,2.14-4.1,2.4c-1.43.3-4.24-.85-4.24-.85s3-2.26,4-2.4a13.52,13.52,0,0,1,4.38.85" transform="translate(-42.1 -42.36)"/><path class="cls-1" d="M72.25,73.63s-2.87,2.13-4.1,2.4c-1.43.3-4.24-.85-4.24-.85s2.94-2.26,4-2.4c1.47-.2,4.38.85,4.38.85" transform="translate(-42.1 -42.36)"/><path class="cls-1" d="M73.88,66.24s-2.86,2.14-4.09,2.4c-1.44.31-4.25-.85-4.25-.85s2.94-2.26,4-2.4a13.52,13.52,0,0,1,4.38.85" transform="translate(-42.1 -42.36)"/><path class="cls-1" d="M75.51,58.85s-2.86,2.14-4.1,2.4c-1.43.31-4.24-.84-4.24-.84s3-2.26,4-2.4c1.47-.2,4.38.84,4.38.84" transform="translate(-42.1 -42.36)"/><path class="cls-1" d="M77,51.46s-2.86,2.14-4.09,2.4c-1.44.31-4.25-.84-4.25-.84s3-2.27,4-2.4c1.47-.2,4.38.84,4.38.84" transform="translate(-42.1 -42.36)"/><path class="cls-1" d="M78.67,44s-2.87,2.15-4.1,2.41c-1.43.3-4.24-.85-4.24-.85s2.94-2.26,4-2.4c1.46-.2,4.38.84,4.38.84" transform="translate(-42.1 -42.36)"/><path class="cls-1" d="M89.11,47.77s-3.44,2.56-4.92,2.88c-1.72.37-5.09-1-5.09-1s3.53-2.72,4.75-2.88c1.76-.24,5.26,1,5.26,1" transform="translate(-42.1 -42.36)"/><path class="cls-1" d="M87.26,55.27s-3.44,2.56-4.92,2.88c-1.72.37-5.09-1-5.09-1s3.54-2.72,4.75-2.88c1.76-.24,5.26,1,5.26,1" transform="translate(-42.1 -42.36)"/><path class="cls-1" d="M85.52,62.87s-3.44,2.57-4.92,2.89c-1.72.37-5.09-1-5.09-1s3.54-2.72,4.75-2.88c1.76-.24,5.26,1,5.26,1" transform="translate(-42.1 -42.36)"/><path class="cls-1" d="M83.56,70.38s-3.44,2.55-4.92,2.87c-1.71.37-5.09-1-5.09-1s3.54-2.71,4.75-2.88c1.76-.23,5.26,1,5.26,1" transform="translate(-42.1 -42.36)"/><path class="cls-1" d="M81.82,78s-3.44,2.55-4.92,2.87c-1.71.37-5.09-1-5.09-1s3.54-2.72,4.75-2.88c1.76-.24,5.26,1,5.26,1" transform="translate(-42.1 -42.36)"/><path class="cls-1" d="M94.65,74s-4,3-5.75,3.36c-2,.44-6-1.18-6-1.18S87.08,73,88.5,72.76c2.06-.27,6.15,1.2,6.15,1.2" transform="translate(-42.1 -42.36)"/><path class="cls-1" d="M96.5,66.46s-4,3-5.75,3.37c-2,.43-6-1.19-6-1.19s4.13-3.17,5.56-3.37c2.06-.28,6.15,1.19,6.15,1.19" transform="translate(-42.1 -42.36)"/><path class="cls-1" d="M92.8,81.55s-1.17.87-2.52,1.74l-8.57,0c1.21-.89,3.86-2.76,4.94-2.91,2.06-.27,6.15,1.19,6.15,1.19" transform="translate(-42.1 -42.36)"/><path class="cls-1" d="M98.46,59s-4,3-5.76,3.37c-2,.44-6-1.18-6-1.18s4.13-3.19,5.56-3.38C94.37,57.5,98.46,59,98.46,59" transform="translate(-42.1 -42.36)"/><path class="cls-1" d="M100.31,51.35s-4,3-5.76,3.38c-2,.43-6-1.19-6-1.19s4.13-3.18,5.55-3.37c2.07-.28,6.16,1.18,6.16,1.18" transform="translate(-42.1 -42.36)"/><path class="cls-1" d="M102.16,43.75s-4,3-5.76,3.37c-2,.44-6-1.19-6-1.19a33,33,0,0,1,4.13-2.86l5.44,0c1.2.32,2.14.65,2.14.65" transform="translate(-42.1 -42.36)"/><path class="cls-1" d="M105.31,77.55s-4.59,3.42-6.56,3.84C96.46,81.88,92,80,92,80s4.71-3.62,6.34-3.83c2.34-.32,7,1.35,7,1.35" transform="translate(-42.1 -42.36)"/><path class="cls-1" d="M107.27,70.06s-4.59,3.41-6.56,3.84c-2.29.49-6.79-1.36-6.79-1.36s4.71-3.61,6.33-3.84c2.35-.31,7,1.36,7,1.36" transform="translate(-42.1 -42.36)"/><path class="cls-1" d="M109.12,62.56s-4.59,3.42-6.56,3.84c-2.29.49-6.79-1.35-6.79-1.35s4.71-3.62,6.33-3.85c2.35-.31,7,1.36,7,1.36" transform="translate(-42.1 -42.36)"/><path class="cls-1" d="M111,55.06s-4.59,3.42-6.57,3.85c-2.28.48-6.79-1.36-6.79-1.36s4.72-3.63,6.34-3.84c2.35-.32,7,1.35,7,1.35" transform="translate(-42.1 -42.36)"/><path class="cls-1" d="M112.81,47.57s-4.58,3.41-6.56,3.84c-2.28.49-6.78-1.35-6.78-1.35s4.71-3.63,6.33-3.85c2.35-.32,7,1.36,7,1.36" transform="translate(-42.1 -42.36)"/><path class="cls-1" d="M117.82,73.52s-5,3.76-7.22,4.22c-2.52.55-7.47-1.49-7.47-1.49s5.18-4,7-4.22c2.59-.34,7.72,1.49,7.72,1.49" transform="translate(-42.1 -42.36)"/><path class="cls-1" d="M119.45,66s-5,3.77-7.22,4.23c-2.52.55-7.47-1.49-7.47-1.49s5.19-4,7-4.23c2.59-.35,7.72,1.49,7.72,1.49" transform="translate(-42.1 -42.36)"/><path class="cls-1" d="M121.3,58.53s-5,3.76-7.22,4.23c-2.52.53-7.47-1.5-7.47-1.5s5.19-4,7-4.22c2.58-.35,7.72,1.49,7.72,1.49" transform="translate(-42.1 -42.36)"/><path class="cls-1" d="M123.14,51s-5,3.76-7.21,4.23c-2.52.54-7.47-1.5-7.47-1.5s5.19-4,7-4.22c2.58-.35,7.71,1.49,7.71,1.49" transform="translate(-42.1 -42.36)"/><path class="cls-1" d="M125,43.53s-5.06,3.77-7.22,4.23c-2.52.54-7.47-1.49-7.47-1.49s2.52-1.93,4.64-3.19h8.56l1.49.46" transform="translate(-42.1 -42.36)"/><path class="cls-1" d="M115.75,81.12s-1.45,1.08-3.13,2.15H101.79c1.49-1.1,4.87-3.45,6.25-3.64,2.58-.35,7.71,1.49,7.71,1.49" transform="translate(-42.1 -42.36)"/><path class="cls-1" d="M128.69,77.21s-5.6,4.18-8,4.68c-2.79.61-8.29-1.64-8.29-1.64s5.76-4.43,7.74-4.69c2.87-.4,8.56,1.65,8.56,1.65" transform="translate(-42.1 -42.36)"/><path class="cls-1" d="M130.54,69.72s-5.6,4.17-8,4.69c-2.8.6-8.29-1.65-8.29-1.65s5.75-4.43,7.74-4.7c2.86-.38,8.56,1.66,8.56,1.66" transform="translate(-42.1 -42.36)"/><path class="cls-1" d="M132.39,62.11s-5.6,4.18-8,4.7c-2.8.59-8.29-1.66-8.29-1.66s5.76-4.43,7.74-4.69c2.86-.39,8.56,1.65,8.56,1.65" transform="translate(-42.1 -42.36)"/><path class="cls-1" d="M134.13,54.62s-5.61,4.17-8,4.69c-2.8.6-8.29-1.66-8.29-1.66s5.75-4.43,7.73-4.69c2.87-.39,8.57,1.66,8.57,1.66" transform="translate(-42.1 -42.36)"/><path class="cls-1" d="M136,47.12s-5.6,4.17-8,4.69c-2.8.6-8.29-1.65-8.29-1.65s5.76-4.43,7.73-4.7c2.87-.39,8.57,1.66,8.57,1.66" transform="translate(-42.1 -42.36)"/><path class="cls-1" d="M141.63,72.87s-6,4.5-8.65,5.06c-3,.65-8.95-1.78-8.95-1.78s6.22-4.78,8.36-5.07c3.09-.42,9.24,1.79,9.24,1.79" transform="translate(-42.1 -42.36)"/><path class="cls-1" d="M143.37,65.26s-6.05,4.51-8.65,5.07c-3,.65-9-1.79-9-1.79s6.22-4.77,8.35-5.06c3.1-.42,9.25,1.78,9.25,1.78" transform="translate(-42.1 -42.36)"/><path class="cls-1" d="M145.22,57.77s-6.05,4.51-8.65,5.07c-3,.64-8.95-1.79-8.95-1.79S133.83,56.27,136,56c3.1-.42,9.25,1.79,9.25,1.79" transform="translate(-42.1 -42.36)"/><path class="cls-1" d="M147.07,50.16s-6,4.51-8.65,5.07c-3,.65-8.95-1.79-8.95-1.79s6.21-4.78,8.35-5.07c3.1-.41,9.25,1.79,9.25,1.79" transform="translate(-42.1 -42.36)"/><path class="cls-1" d="M147.78,43.09c-1.8,1.28-5.77,4-7.74,4.4-3,.65-8.95-1.78-8.95-1.78s1.72-1.33,3.67-2.63h13" transform="translate(-42.1 -42.36)"/><path class="cls-1" d="M139.79,80.47s-1.94,1.45-4.09,2.8l-12.92,0c1.61-1.2,6-4.38,7.76-4.61,3.09-.41,9.25,1.79,9.25,1.79" transform="translate(-42.1 -42.36)"/><path class="cls-1" d="M167.88,63.29c1.63,2.43,3.14,5.6,2.73,8.95a11.55,11.55,0,0,1-3.71,7.59,15.29,15.29,0,0,1-7.3,3.72,13.85,13.85,0,0,1-6.11,0c-1.78-.34-2.69-1.1-4.29-1.94l1.38-8.34a9.77,9.77,0,0,0,5.86,1.93A3.62,3.62,0,0,0,159.6,73a4.06,4.06,0,0,0,.13-2.19c-.28-2.73-4.56-6.76-5.17-7.52-1.69-2.44-3.22-5.66-2.81-9a11.57,11.57,0,0,1,3.71-7.58A15.39,15.39,0,0,1,162.77,43a14,14,0,0,1,6.11,0c1.78.34,2.68,1.1,4.28,2l-1.37,8.33a9.92,9.92,0,0,0-5.86-1.92,3.6,3.6,0,0,0-3.16,2.18,4,4,0,0,0-.14,2.19c.3,2.84,4.94,7.09,5.25,7.59" transform="translate(-42.1 -42.36)"/><polyline class="cls-1" points="134.85 0.17 146.06 0.17 139.79 40.93 128.56 40.96 134.85 0.17"/><path class="cls-1" d="M215.4,83.31l-2.19-40.78H199.75L183.51,83.31h11.35l1.75-5.24H204l0,5.24H215.4m-16-13.9S204,55.56,204.69,53l-.6,16.39Z" transform="translate(-42.1 -42.36)"/></svg>